<?xml version="1.0" encoding="UTF-8" standalone="no"?>
<svg width="892px" height="302px" viewBox="0 0 892 302" version="1.1" xmlns="http://www.w3.org/2000/svg" xmlns:xlink="http://www.w3.org/1999/xlink">
    <!-- Generator: Sketch 49.2 (51160) - http://www.bohemiancoding.com/sketch -->
    <title>topo</title>
    <desc>Created with Sketch.</desc>
    <defs>
        <path d="M2,33 L138,33 C139.104569,33 140,33.8954305 140,35 L140,161 C140,162.104569 139.104569,163 138,163 L2,163 C0.8954305,163 1.3527075e-16,162.104569 0,161 L0,35 C-1.3527075e-16,33.8954305 0.8954305,33 2,33 Z" id="path-1"></path>
        <mask id="mask-2" maskContentUnits="userSpaceOnUse" maskUnits="objectBoundingBox" x="0" y="0" width="140" height="130" fill="white">
            <use xlink:href="#path-1"></use>
        </mask>
        <rect id="path-3" x="0" y="11.25" width="24" height="9.75"></rect>
        <rect id="path-4" x="0" y="0" width="24" height="9.75"></rect>
        <polygon id="path-5" points="9 0 23 0 25 5 32 5 32 27 0 27 0 5 7 5"></polygon>
        <path d="M2,33 L138,33 C139.104569,33 140,33.8954305 140,35 L140,161 C140,162.104569 139.104569,163 138,163 L2,163 C0.8954305,163 1.3527075e-16,162.104569 0,161 L0,35 C-1.3527075e-16,33.8954305 0.8954305,33 2,33 Z" id="path-6"></path>
        <mask id="mask-7" maskContentUnits="userSpaceOnUse" maskUnits="objectBoundingBox" x="0" y="0" width="140" height="130" fill="white">
            <use xlink:href="#path-6"></use>
        </mask>
        <rect id="path-8" x="0" y="11.25" width="24" height="9.75"></rect>
        <rect id="path-9" x="0" y="0" width="24" height="9.75"></rect>
        <polygon id="path-10" points="9 0 23 0 25 5 32 5 32 27 0 27 0 5 7 5"></polygon>
        <path d="M2,31 L160,31 C161.104569,31 162,31.8954305 162,33 L162,89 C162,90.1045695 161.104569,91 160,91 L2,91 C0.8954305,91 1.3527075e-16,90.1045695 0,89 L0,33 C-1.3527075e-16,31.8954305 0.8954305,31 2,31 Z" id="path-11"></path>
        <mask id="mask-12" maskContentUnits="userSpaceOnUse" maskUnits="objectBoundingBox" x="0" y="0" width="162" height="60" fill="white">
            <use xlink:href="#path-11"></use>
        </mask>
        <rect id="path-13" x="3.24264069" y="5.24264069" width="6" height="6"></rect>
        <rect id="path-14" x="10.8284271" y="0.828427125" width="4" height="4"></rect>
        <rect id="path-15" x="16.8284271" y="5.82842712" width="5" height="5"></rect>
        <path d="M0,12 L0,8 L24,8 L24,12 L21,31 L3,31 L0,12 Z" id="path-16"></path>
        <path d="M2,36 L138,36 C139.104569,36 140,36.8954305 140,38 L140,234 C140,235.104569 139.104569,236 138,236 L2,236 C0.8954305,236 1.3527075e-16,235.104569 0,234 L0,38 C-1.3527075e-16,36.8954305 0.8954305,36 2,36 Z" id="path-17"></path>
        <mask id="mask-18" maskContentUnits="userSpaceOnUse" maskUnits="objectBoundingBox" x="0" y="0" width="140" height="200" fill="white">
            <use xlink:href="#path-17"></use>
        </mask>
        <polygon id="path-19" points="4 0 28 0 32 20.0975811 32 32 0 32 0 20.0693117"></polygon>
        <rect id="path-20" x="0" y="20" width="32" height="12"></rect>
        <rect id="path-21" x="12" y="2" width="18" height="9"></rect>
        <polygon id="path-22" points="0 0 13 0 15 8 32 8 32 30 0 30"></polygon>
        <polygon id="path-23" points="5 0 29 0 29 23 24 30 0 30 0 5"></polygon>
        <rect id="path-24" x="0" y="5" width="24" height="25"></rect>
        <polygon id="path-25" points="3.75 0 18.75 0 18.75 18.75 15 24 0 24 0 3.75"></polygon>
        <polygon id="path-26" points="0 4 15 4 15 24 0 24"></polygon>
        <path d="M0,2 L189,2 L189,39 L0,39 L0,2 Z M298,0 L529,0 L529,37 L298,37 L298,0 Z" id="path-27"></path>
    </defs>
    <g id="Page-1" stroke="none" stroke-width="1" fill="none" fill-rule="evenodd">
        <g id="resourceï¼protect" transform="translate(-75.000000, -644.000000)">
            <g id="topo" transform="translate(75.000000, 643.000000)">
                <g id="Group-4" transform="translate(280.000000, 140.000000)">
                    <use id="Rectangle-7" stroke="#999999" mask="url(#mask-2)" stroke-width="2" stroke-dasharray="2,2" xlink:href="#path-1"></use>
                    <g id="snapshot" transform="translate(50.000000, 87.000000)">
                        <path d="M8,16 C3.581722,16 0,12.418278 0,8 C0,3.581722 3.581722,0 8,0 C12.418278,0 16,3.581722 16,8 C16,12.418278 12.418278,16 8,16 Z M8,14 C11.3137085,14 14,11.3137085 14,8 C14,4.6862915 11.3137085,2 8,2 C4.6862915,2 2,4.6862915 2,8 C2,11.3137085 4.6862915,14 8,14 Z" id="Combined-Shape" fill="#999999"></path>
                        <rect id="Rectangle-24" fill="#3DCCA6" x="7" y="3" width="2" height="7" rx="1"></rect>
                        <rect id="Rectangle-24" fill="#3DCCA6" transform="translate(9.000000, 8.000000) rotate(90.000000) translate(-9.000000, -8.000000) " x="8" y="5" width="2" height="6" rx="1"></rect>
                    </g>
                    <g id="dorado">
                        <g id="Rectangle-18">
                            <use fill="#3399FF" fill-rule="evenodd" xlink:href="#path-3"></use>
                            <rect stroke="#333333" stroke-width="2" x="1" y="12.25" width="22" height="7.75"></rect>
                        </g>
                        <rect id="Rectangle-21" fill="#FFFFFF" x="17.75" y="15" width="2.25" height="2.25"></rect>
                        <rect id="Rectangle-21" fill="#FFFFFF" x="4" y="15" width="12" height="2.25"></rect>
                        <g id="Rectangle-18">
                            <use fill="#3399FF" fill-rule="evenodd" xlink:href="#path-4"></use>
                            <rect stroke="#333333" stroke-width="2" x="1" y="1" width="22" height="7.75"></rect>
                        </g>
                        <rect id="Rectangle-21" fill="#FFFFFF" x="4" y="3.75" width="2.25" height="2.25"></rect>
                        <rect id="Rectangle-21" fill="#FFFFFF" x="8" y="3.75" width="12" height="2.25"></rect>
                    </g>
                    <g id="lun" transform="translate(27.000000, 112.000000)" stroke="#333333" stroke-width="2">
                        <ellipse id="Combined-Shape" fill="#FFFFFF" cx="12" cy="23" rx="12" ry="5"></ellipse>
                        <ellipse id="Combined-Shape" fill="#FFFFFF" cx="12" cy="17" rx="12" ry="5"></ellipse>
                        <ellipse id="Combined-Shape" fill="#FFFFFF" cx="12" cy="11" rx="12" ry="5"></ellipse>
                        <ellipse id="Combined-Shape" fill="#3DCCA6" cx="12" cy="5" rx="12" ry="5"></ellipse>
                    </g>
                    <g id="snapshot" transform="translate(23.000000, 48.000000)">
                        <g id="Rectangle-18">
                            <use fill="#3DCCA6" fill-rule="evenodd" xlink:href="#path-5"></use>
                            <path stroke="#333333" stroke-width="2" d="M9.67703296,1 L7.67703296,6 L1,6 L1,26 L31,26 L31,6 L24.322967,6 L22.322967,1 L9.67703296,1 Z"></path>
                        </g>
                        <path d="M16,22 C12.1340068,22 9,18.8659932 9,15 C9,11.1340068 12.1340068,8 16,8 C19.8659932,8 23,11.1340068 23,15 C23,18.8659932 19.8659932,22 16,22 Z M16,20 C18.7614237,20 21,17.7614237 21,15 C21,12.2385763 18.7614237,10 16,10 C13.2385763,10 11,12.2385763 11,15 C11,17.7614237 13.2385763,20 16,20 Z" id="Combined-Shape" fill="#FFFFFF"></path>
                    </g>
                    <text id="Snapshot" font-family="PingFangSC-Regular, PingFang SC" font-size="14" font-weight="normal" fill="#666666">
                        <tspan x="65" y="68">Snapshot</tspan>
                    </text>
                    <text id="LUN-01" font-family="PingFangSC-Regular, PingFang SC" font-size="14" font-weight="normal" fill="#666666">
                        <tspan x="67" y="132">LUN-01</tspan>
                    </text>
                    <text id="Dorado_V3_185.115" font-family="PingFangSC-Regular, PingFang SC" font-size="14" font-weight="normal" fill="#666666">
                        <tspan x="34" y="16">Dorado_V3_185.115</tspan>
                    </text>
                </g>
                <g id="Group-4" transform="translate(619.000000, 140.000000)">
                    <use id="Rectangle-7" stroke="#999999" mask="url(#mask-7)" stroke-width="2" stroke-dasharray="2,2" xlink:href="#path-6"></use>
                    <g id="snapshot" transform="translate(49.000000, 87.000000)">
                        <path d="M8,16 C3.581722,16 0,12.418278 0,8 C0,3.581722 3.581722,0 8,0 C12.418278,0 16,3.581722 16,8 C16,12.418278 12.418278,16 8,16 Z M8,14 C11.3137085,14 14,11.3137085 14,8 C14,4.6862915 11.3137085,2 8,2 C4.6862915,2 2,4.6862915 2,8 C2,11.3137085 4.6862915,14 8,14 Z" id="Combined-Shape" fill="#999999"></path>
                        <rect id="Rectangle-24" fill="#3DCCA6" x="7" y="3" width="2" height="7" rx="1"></rect>
                        <rect id="Rectangle-24" fill="#3DCCA6" transform="translate(9.000000, 8.000000) rotate(90.000000) translate(-9.000000, -8.000000) " x="8" y="5" width="2" height="6" rx="1"></rect>
                    </g>
                    <g id="dorado">
                        <g id="Rectangle-18">
                            <use fill="#3399FF" fill-rule="evenodd" xlink:href="#path-8"></use>
                            <rect stroke="#333333" stroke-width="2" x="1" y="12.25" width="22" height="7.75"></rect>
                        </g>
                        <rect id="Rectangle-21" fill="#FFFFFF" x="17.75" y="15" width="2.25" height="2.25"></rect>
                        <rect id="Rectangle-21" fill="#FFFFFF" x="4" y="15" width="12" height="2.25"></rect>
                        <g id="Rectangle-18">
                            <use fill="#3399FF" fill-rule="evenodd" xlink:href="#path-9"></use>
                            <rect stroke="#333333" stroke-width="2" x="1" y="1" width="22" height="7.75"></rect>
                        </g>
                        <rect id="Rectangle-21" fill="#FFFFFF" x="4" y="3.75" width="2.25" height="2.25"></rect>
                        <rect id="Rectangle-21" fill="#FFFFFF" x="8" y="3.75" width="12" height="2.25"></rect>
                    </g>
                    <g id="lun" transform="translate(27.000000, 112.000000)" stroke="#333333" stroke-width="2">
                        <ellipse id="Combined-Shape" fill="#FFFFFF" cx="12" cy="23" rx="12" ry="5"></ellipse>
                        <ellipse id="Combined-Shape" fill="#FFFFFF" cx="12" cy="17" rx="12" ry="5"></ellipse>
                        <ellipse id="Combined-Shape" fill="#FFFFFF" cx="12" cy="11" rx="12" ry="5"></ellipse>
                        <ellipse id="Combined-Shape" fill="#3DCCA6" cx="12" cy="5" rx="12" ry="5"></ellipse>
                    </g>
                    <g id="snapshot" transform="translate(23.000000, 48.000000)">
                        <g id="Rectangle-18">
                            <use fill="#3DCCA6" fill-rule="evenodd" xlink:href="#path-10"></use>
                            <path stroke="#333333" stroke-width="2" d="M9.67703296,1 L7.67703296,6 L1,6 L1,26 L31,26 L31,6 L24.322967,6 L22.322967,1 L9.67703296,1 Z"></path>
                        </g>
                        <path d="M16,22 C12.1340068,22 9,18.8659932 9,15 C9,11.1340068 12.1340068,8 16,8 C19.8659932,8 23,11.1340068 23,15 C23,18.8659932 19.8659932,22 16,22 Z M16,20 C18.7614237,20 21,17.7614237 21,15 C21,12.2385763 18.7614237,10 16,10 C13.2385763,10 11,12.2385763 11,15 C11,17.7614237 13.2385763,20 16,20 Z" id="Combined-Shape" fill="#FFFFFF"></path>
                    </g>
                    <text id="Snapshot" font-family="PingFangSC-Regular, PingFang SC" font-size="14" font-weight="normal" fill="#666666">
                        <tspan x="65" y="68">Snapshot</tspan>
                    </text>
                    <text id="LUN-01" font-family="PingFangSC-Regular, PingFang SC" font-size="14" font-weight="normal" fill="#666666">
                        <tspan x="65" y="132">LUN-01</tspan>
                    </text>
                    <text id="Dorado_V3_185.115" font-family="PingFangSC-Regular, PingFang SC" font-size="14" font-weight="normal" fill="#666666">
                        <tspan x="34" y="16">Dorado_V3_185.115</tspan>
                    </text>
                </g>
                <g id="Group-4" transform="translate(616.000000, 0.000000)">
                    <use id="Rectangle-7" stroke="#999999" mask="url(#mask-12)" stroke-width="2" stroke-dasharray="2,2" xlink:href="#path-11"></use>
                    <g id="bucket" transform="translate(26.000000, 45.000000)">
                        <g id="Rectangle-23" transform="translate(6.242641, 8.242641) rotate(45.000000) translate(-6.242641, -8.242641) ">
                            <use fill="#FFFFFF" fill-rule="evenodd" xlink:href="#path-13"></use>
                            <rect stroke="#333333" stroke-width="1" x="3.74264069" y="5.74264069" width="5" height="5"></rect>
                        </g>
                        <g id="Rectangle-23" transform="translate(12.828427, 2.828427) rotate(45.000000) translate(-12.828427, -2.828427) ">
                            <use fill="#FFFFFF" fill-rule="evenodd" xlink:href="#path-14"></use>
                            <rect stroke="#333333" stroke-width="1" x="11.3284271" y="1.32842712" width="3" height="3"></rect>
                        </g>
                        <g id="Rectangle-23" transform="translate(19.328427, 8.328427) rotate(45.000000) translate(-19.328427, -8.328427) ">
                            <use fill="#FFFFFF" fill-rule="evenodd" xlink:href="#path-15"></use>
                            <rect stroke="#333333" stroke-width="1" x="17.3284271" y="6.32842712" width="4" height="4"></rect>
                        </g>
                        <g id="Combined-Shape">
                            <use fill="#3DCCA6" fill-rule="evenodd" xlink:href="#path-16"></use>
                            <path stroke="#333333" stroke-width="2" d="M1,11.9215386 L3.8544939,30 L20.1455061,30 L23,11.9215386 L23,9 L1,9 L1,11.9215386 Z"></path>
                        </g>
                    </g>
                    <text id="bucket-hc" font-family="PingFangSC-Regular, PingFang SC" font-size="14" font-weight="normal" fill="#666666">
                        <tspan x="60" y="67">bucket-hc</tspan>
                    </text>
                    <g id="cloud" transform="translate(4.000000, 2.000000)" stroke="#333333" stroke-width="2">
                        <path d="M9,15 C6.23857625,15 4,12.7614237 4,10 C4,7.23857625 6.23857625,5 9,5 C9.01144827,5 9.02288756,5.00003848 9.03431774,5.0001153 C9.345168,2.18759075 11.7296144,0 14.625,0 C17.5724819,0 19.9904727,2.26702112 20.2304385,5.15252947 C22.396891,5.7007499 24,7.66316187 24,10 C24,12.7614237 21.7614237,15 19,15 L9,15 Z" id="Combined-Shape" fill="#FFFFFF"></path>
                        <path d="M5,17 C2.23857625,17 0,14.7614237 0,12 C0,9.23857625 2.23857625,7 5,7 C5.01144827,7 5.02288756,7.00003848 5.03431774,7.0001153 C5.345168,4.18759075 7.7296144,2 10.625,2 C13.5724819,2 15.9904727,4.26702112 16.2304385,7.15252947 C18.396891,7.7007499 20,9.66316187 20,12 C20,14.7614237 17.7614237,17 15,17 L5,17 Z" id="Combined-Shape" fill="#3399FF"></path>
                    </g>
                    <g id="Group-6" transform="translate(38.000000, 0.000000)">
                        <text id="Huawei-Cloud" font-family="PingFangSC-Regular, PingFang SC" font-size="14" font-weight="normal" fill="#666666">
                            <tspan x="0" y="15">Huawei Cloud  </tspan>
                        </text>
                        <text id="CN-East-Shanghai2" font-family="PingFangSC-Regular, PingFang SC" font-size="14" font-weight="normal" fill="#666666">
                            <tspan x="108" y="15">CN East-Shanghai2  </tspan>
                        </text>
                        <path d="M98.5,4.5 L98.5,16.5" id="Line" stroke="#979797" stroke-linecap="square"></path>
                    </g>
                </g>
                <g id="snapshot" transform="translate(512.000000, 144.000000)">
                    <path d="M8,16 C3.581722,16 0,12.418278 0,8 C0,3.581722 3.581722,0 8,0 C12.418278,0 16,3.581722 16,8 C16,12.418278 12.418278,16 8,16 Z M8,14 C11.3137085,14 14,11.3137085 14,8 C14,4.6862915 11.3137085,2 8,2 C4.6862915,2 2,4.6862915 2,8 C2,11.3137085 4.6862915,14 8,14 Z" id="Combined-Shape" fill="#999999"></path>
                    <rect id="Rectangle-24" fill="#3DCCA6" x="7" y="3" width="2" height="7" rx="1"></rect>
                    <rect id="Rectangle-24" fill="#3DCCA6" transform="translate(9.000000, 8.000000) rotate(90.000000) translate(-9.000000, -8.000000) " x="8" y="5" width="2" height="6" rx="1"></rect>
                </g>
                <g id="Group-7" transform="translate(0.000000, 67.000000)">
                    <use id="Rectangle-7" stroke="#999999" mask="url(#mask-18)" stroke-width="2" stroke-dasharray="2,2" xlink:href="#path-17"></use>
                    <g id="disk" transform="translate(24.000000, 182.000000)">
                        <g id="Rectangle-18">
                            <use fill="#FFFFFF" fill-rule="evenodd" xlink:href="#path-19"></use>
                            <path stroke="#333333" stroke-width="2" d="M4.82035939,1 L1,20.1679959 L1,31 L31,31 L31,20.1961291 L27.179415,1 L4.82035939,1 Z"></path>
                        </g>
                        <g id="Rectangle-18">
                            <use fill="#3DCCA6" fill-rule="evenodd" xlink:href="#path-20"></use>
                            <rect stroke="#333333" stroke-width="2" x="1" y="21" width="30" height="10"></rect>
                        </g>
                        <rect id="Rectangle-21" fill="#FFFFFF" x="22" y="24" width="4" height="4"></rect>
                    </g>
                    <g id="adc" transform="translate(24.000000, 58.000000)">
                        <g id="Rectangle-20">
                            <use fill="#FFFFFF" fill-rule="evenodd" xlink:href="#path-21"></use>
                            <rect stroke="#333333" stroke-width="2" x="13" y="3" width="16" height="7"></rect>
                        </g>
                        <g id="Rectangle-18">
                            <use fill="#3DCCA6" fill-rule="evenodd" xlink:href="#path-22"></use>
                            <path stroke="#333333" stroke-width="2" d="M1,1 L1,29 L31,29 L31,9 L14.2192236,9 L12.2192236,1 L1,1 Z"></path>
                        </g>
                    </g>
                    <text id="/usr" font-family="PingFangSC-Regular, PingFang SC" font-size="14" font-weight="normal" fill="#666666">
                        <tspan x="66" y="78">/usr</tspan>
                    </text>
                    <text id="/D" font-family="PingFangSC-Regular, PingFang SC" font-size="14" font-weight="normal" fill="#666666">
                        <tspan x="66" y="141">/D</tspan>
                    </text>
                    <text id="Disk" font-family="PingFangSC-Regular, PingFang SC" font-size="14" font-weight="normal" fill="#666666">
                        <tspan x="66" y="204">Disk</tspan>
                    </text>
                    <g id="d" transform="translate(26.000000, 121.000000)">
                        <g id="Rectangle-18">
                            <use fill="#FFFFFF" fill-rule="evenodd" xlink:href="#path-23"></use>
                            <path stroke="#333333" stroke-width="2" d="M5.41421356,1 L1,5.41421356 L1,29 L23.4853821,29 L28,22.6795349 L28,1 L5.41421356,1 Z"></path>
                        </g>
                        <g id="Rectangle-18">
                            <use fill="#3DCCA6" fill-rule="evenodd" xlink:href="#path-24"></use>
                            <rect stroke="#333333" stroke-width="2" x="1" y="6" width="22" height="23"></rect>
                        </g>
                        <path d="M12,23 C8.6862915,23 6,20.3137085 6,17 C6,13.6862915 8.6862915,11 12,11 C15.3137085,11 18,13.6862915 18,17 C18,20.3137085 15.3137085,23 12,23 Z M12,19 C13.1045695,19 14,18.1045695 14,17 C14,15.8954305 13.1045695,15 12,15 C10.8954305,15 10,15.8954305 10,17 C10,18.1045695 10.8954305,19 12,19 Z" id="Combined-Shape" fill="#FFFFFF"></path>
                    </g>
                    <text id="Host_185.122" font-family="PingFangSC-Regular, PingFang SC" font-size="14" font-weight="normal" fill="#666666">
                        <tspan x="30" y="16">Host_185.122</tspan>
                    </text>
                    <g id="host" transform="translate(1.000000, 0.000000)">
                        <g id="Rectangle-18">
                            <use fill="#FFFFFF" fill-rule="evenodd" xlink:href="#path-25"></use>
                            <path stroke="#333333" stroke-width="2" d="M4.16421356,1 L1,4.16421356 L1,23 L14.4853821,23 L17.75,18.4295349 L17.75,1 L4.16421356,1 Z"></path>
                        </g>
                        <g id="Rectangle-18">
                            <use fill="#3399FF" fill-rule="evenodd" xlink:href="#path-26"></use>
                            <path stroke="#333333" stroke-width="2" d="M1,5 L1,23 L14,23 L14,5 L1,5 Z"></path>
                        </g>
                        <rect id="Rectangle-19" fill="#FFFFFF" x="4" y="8" width="7" height="2" rx="1"></rect>
                        <path d="M4.5,16 L10.5,16 C10.7761424,16 11,16.2238576 11,16.5 L11,16.5 C11,16.7761424 10.7761424,17 10.5,17 L4.5,17 C4.22385763,17 4,16.7761424 4,16.5 L4,16.5 C4,16.2238576 4.22385763,16 4.5,16 Z" id="Rectangle-19" fill="#FFFFFF"></path>
                        <path d="M4,13 L11,13 L11,20 L4,20 L4,13 Z M5,14 L5,19 L10,19 L10,14 L5,14 Z" id="Combined-Shape" fill="#FFFFFF"></path>
                    </g>
                </g>
                <g id="Line-2" transform="translate(110.000000, 251.000000)">
                    <mask id="mask-28" fill="white">
                        <use xlink:href="#path-27"></use>
                    </mask>
                    <g id="Mask"></g>
                    <path d="M-31.5,16.5 L529.674366,16.5" stroke="#999999" stroke-linecap="square" mask="url(#mask-28)"></path>
                </g>
                <path d="M539.5,61.5 L539.5,262.538831" id="Line-4" stroke="#979797" stroke-linecap="square"></path>
                <path d="M319.5,221.5 L319.5,245.538831" id="Line-4" stroke="#979797" stroke-linecap="square"></path>
                <path d="M40.5,221.5 L40.5,245.538831" id="Line-4" stroke="#979797" stroke-linecap="square"></path>
                <path d="M40.5,159.5 L40.5,183.538831" id="Line-4" stroke="#979797" stroke-linecap="square"></path>
                <path d="M657.5,221.5 L657.5,245.538831" id="Line-4" stroke="#979797" stroke-linecap="square"></path>
                <path d="M539.5,262.5 L408.296007,262.5" id="Line-5" stroke="#979797" stroke-linecap="square"></path>
                <path d="M539.5,61.5 L636.975116,61.5" id="Line-3" stroke="#979797" stroke-linecap="square"></path>
            </g>
        </g>
    </g>
</svg>