<?xml version="1.0" encoding="UTF-8" standalone="no"?>
<svg width="922px" height="914px" viewBox="0 0 922 914" version="1.1" xmlns="http://www.w3.org/2000/svg" xmlns:xlink="http://www.w3.org/1999/xlink">
    <!-- Generator: Sketch 49.2 (51160) - http://www.bohemiancoding.com/sketch -->
    <title>Group 9</title>
    <desc>Created with Sketch.</desc>
    <defs>
        <circle id="path-1" cx="462" cy="462" r="462"></circle>
        <filter x="-16.2%" y="-16.2%" width="132.5%" height="132.5%" filterUnits="objectBoundingBox" id="filter-2">
            <feGaussianBlur stdDeviation="50" in="SourceGraphic"></feGaussianBlur>
        </filter>
        <linearGradient x1="50%" y1="38.8876121%" x2="50%" y2="100%" id="linearGradient-4">
            <stop stop-color="#B8E9FF" offset="0%"></stop>
            <stop stop-color="#7BA7FF" offset="100%"></stop>
        </linearGradient>
        <linearGradient x1="50%" y1="32.3184357%" x2="50%" y2="100%" id="linearGradient-5">
            <stop stop-color="#9FC2FF" offset="0%"></stop>
            <stop stop-color="#5389E8" offset="100%"></stop>
        </linearGradient>
        <linearGradient x1="50%" y1="0%" x2="50%" y2="100%" id="linearGradient-6">
            <stop stop-color="#7AE1F6" stop-opacity="0" offset="0%"></stop>
            <stop stop-color="#79E1F7" offset="100%"></stop>
        </linearGradient>
        <linearGradient x1="62.275072%" y1="3.2841558%" x2="44.7636799%" y2="100%" id="linearGradient-7">
            <stop stop-color="#BEE0FF" offset="0%"></stop>
            <stop stop-color="#AAD0FF" offset="100%"></stop>
        </linearGradient>
    </defs>
    <g id="Page-1" stroke="none" stroke-width="1" fill="none" fill-rule="evenodd">
        <g id="home" transform="translate(-32.000000, -90.000000)">
            <g id="Group-9" transform="translate(31.000000, 90.000000)">
                <g id="Group-3">
                    <mask id="mask-3" fill="white">
                        <use xlink:href="#path-1"></use>
                    </mask>
                    <g id="Mask" filter="url(#filter-2)"></g>
                    <g mask="url(#mask-3)" fill="#E9ECF7" id="Combined-Shape">
                        <g transform="translate(-25.000000, -566.000000)">
                            <path d="M1.75215492,1304.93176 L1.32039354,1305.18392 L0.81608369,1304.32039 L1.24784508,1304.06824 L1102.24785,661.068239 L1102.67961,660.816084 L1103.18392,661.679606 L1102.75215,661.931761 L1.75215492,1304.93176 Z M1.75215492,1194.93176 L1.32039354,1195.18392 L0.81608369,1194.32039 L1.24784508,1194.06824 L1102.24785,551.068239 L1102.67961,550.816084 L1103.18392,551.679606 L1102.75215,551.931761 L1.75215492,1194.93176 Z M1.75215492,1084.93176 L1.32039354,1085.18392 L0.81608369,1084.32039 L1.24784508,1084.06824 L1102.24785,441.068239 L1102.67961,440.816084 L1103.18392,441.679606 L1102.75215,441.931761 L1.75215492,1084.93176 Z M1.75215492,974.931761 L1.32039354,975.183916 L0.81608369,974.320394 L1.24784508,974.068239 L1102.24785,331.068239 L1102.67961,330.816084 L1103.18392,331.679606 L1102.75215,331.931761 L1.75215492,974.931761 Z M1.75215492,864.931761 L1.32039354,865.183916 L0.81608369,864.320394 L1.24784508,864.068239 L1102.24785,221.068239 L1102.67961,220.816084 L1103.18392,221.679606 L1102.75215,221.931761 L1.75215492,864.931761 Z M1.75215492,644.931761 L1.32039354,645.183916 L0.81608369,644.320394 L1.24784508,644.068239 L1102.24785,1.06823861 L1102.67961,0.81608369 L1103.18392,1.67960646 L1102.75215,1.93176139 L1.75215492,644.931761 Z M1.75215492,754.931761 L1.32039354,755.183916 L0.81608369,754.320394 L1.24784508,754.068239 L1102.24785,111.068239 L1102.67961,110.816084 L1103.18392,111.679606 L1102.75215,111.931761 L1.75215492,754.931761 Z M1.75215492,1414.93176 L1.32039354,1415.18392 L0.81608369,1414.32039 L1.24784508,1414.06824 L1102.24785,771.068239 L1102.67961,770.816084 L1103.18392,771.679606 L1102.75215,771.931761 L1.75215492,1414.93176 Z M1.75215492,1524.93176 L1.32039354,1525.18392 L0.81608369,1524.32039 L1.24784508,1524.06824 L1102.24785,881.068239 L1102.67961,880.816084 L1103.18392,881.679606 L1102.75215,881.931761 L1.75215492,1524.93176 Z M1.75215492,1624.93176 L1.32039354,1625.18392 L0.81608369,1624.32039 L1.24784508,1624.06824 L1102.24785,981.068239 L1102.67961,980.816084 L1103.18392,981.679606 L1102.75215,981.931761 L1.75215492,1624.93176 Z M1.75215492,1734.93176 L1.32039354,1735.18392 L0.81608369,1734.32039 L1.24784508,1734.06824 L1102.24785,1091.06824 L1102.67961,1090.81608 L1103.18392,1091.67961 L1102.75215,1091.93176 L1.75215492,1734.93176 Z M1.75215492,1844.93176 L1.32039354,1845.18392 L0.81608369,1844.32039 L1.24784508,1844.06824 L1102.24785,1201.06824 L1102.67961,1200.81608 L1103.18392,1201.67961 L1102.75215,1201.93176 L1.75215492,1844.93176 Z"></path>
                            <path d="M1.75215492,1480.11568 L1.32039354,1480.36783 L0.81608369,1479.50431 L1.24784508,1479.25215 L1102.24785,836.252155 L1102.67961,836 L1103.18392,836.863523 L1102.75215,837.115678 L1.75215492,1480.11568 Z M1.75215492,1370.11568 L1.32039354,1370.36783 L0.81608369,1369.50431 L1.24784508,1369.25215 L1102.24785,726.252155 L1102.67961,726 L1103.18392,726.863523 L1102.75215,727.115678 L1.75215492,1370.11568 Z M1.75215492,1260.11568 L1.32039354,1260.36783 L0.81608369,1259.50431 L1.24784508,1259.25215 L1102.24785,616.252155 L1102.67961,616 L1103.18392,616.863523 L1102.75215,617.115678 L1.75215492,1260.11568 Z M1.75215492,1150.11568 L1.32039354,1150.36783 L0.81608369,1149.50431 L1.24784508,1149.25215 L1102.24785,506.252155 L1102.67961,506 L1103.18392,506.863523 L1102.75215,507.115678 L1.75215492,1150.11568 Z M1.75215492,1040.11568 L1.32039354,1040.36783 L0.81608369,1039.50431 L1.24784508,1039.25215 L1102.24785,396.252155 L1102.67961,396 L1103.18392,396.863523 L1102.75215,397.115678 L1.75215492,1040.11568 Z M1.75215492,820.115678 L1.32039354,820.367833 L0.81608369,819.50431 L1.24784508,819.252155 L1102.24785,176.252155 L1102.67961,176 L1103.18392,176.863523 L1102.75215,177.115678 L1.75215492,820.115678 Z M1.75215492,710.115678 L1.32039354,710.367833 L0.81608369,709.50431 L1.24784508,709.252155 L1102.24785,66.2521549 L1102.67961,66 L1103.18392,66.8635228 L1102.75215,67.1156777 L1.75215492,710.115678 Z M1.75215492,930.115678 L1.32039354,930.367833 L0.81608369,929.50431 L1.24784508,929.252155 L1102.24785,286.252155 L1102.67961,286 L1103.18392,286.863523 L1102.75215,287.115678 L1.75215492,930.115678 Z M1.75215492,1590.11568 L1.32039354,1590.36783 L0.81608369,1589.50431 L1.24784508,1589.25215 L1102.24785,946.252155 L1102.67961,946 L1103.18392,946.863523 L1102.75215,947.115678 L1.75215492,1590.11568 Z M1.75215492,1700.11568 L1.32039354,1700.36783 L0.81608369,1699.50431 L1.24784508,1699.25215 L1102.24785,1056.25215 L1102.67961,1056 L1103.18392,1056.86352 L1102.75215,1057.11568 L1.75215492,1700.11568 Z M1.75215492,1800.11568 L1.32039354,1800.36783 L0.81608369,1799.50431 L1.24784508,1799.25215 L1102.24785,1156.25215 L1102.67961,1156 L1103.18392,1156.86352 L1102.75215,1157.11568 L1.75215492,1800.11568 Z M1.75215492,1910.11568 L1.32039354,1910.36783 L0.81608369,1909.50431 L1.24784508,1909.25215 L1102.24785,1266.25215 L1102.67961,1266 L1103.18392,1266.86352 L1102.75215,1267.11568 L1.75215492,1910.11568 Z M1.75215492,2020.11568 L1.32039354,2020.36783 L0.81608369,2019.50431 L1.24784508,2019.25215 L1102.24785,1376.25215 L1102.67961,1376 L1103.18392,1376.86352 L1102.75215,1377.11568 L1.75215492,2020.11568 Z" transform="translate(552.000000, 1043.183916) scale(-1, 1) translate(-552.000000, -1043.183916) "></path>
                        </g>
                    </g>
                </g>
                <g id="Group-8" transform="translate(75.000000, 68.000000)">
                    <polyline id="Line-2" stroke="#EDF0FF" stroke-width="10" stroke-linecap="round" points="178.5 506.5 299.5 435 209.5 382 301.5 327.5 208 271.5"></polyline>
                    <polyline id="Line-5" stroke="#EDF0FF" stroke-width="10" stroke-linecap="round" transform="translate(346.500000, 351.250000) scale(-1, -1) translate(-346.500000, -351.250000) " points="584 491.5 484.5 430.5 575.980933 377.983168 394.5 267 299.5 321.5 109 211"></polyline>
                    <polyline id="Line-5" stroke="#EDF0FF" stroke-width="10" stroke-linecap="round" transform="translate(211.750000, 298.250000) scale(1, -1) translate(-211.750000, -298.250000) " points="402 438.5 302.5 377.5 393.980933 324.983168 116.5 158 21.5 213.5"></polyline>
                    <polyline id="Line-5" stroke="#DBA8FF" stroke-linecap="square" points="189.5 502.5 302 436.5 208 381.5 397.5 270.5"></polyline>
                    <g id="Group-7" transform="translate(0.000000, 378.000000)">
                        <path d="M131.115005,134.197589 C126.582904,131.629137 119.174177,131.629137 114.642076,134.197589 L4.36320684,196.695302 C0.0161472073,199.158886 0.0161472073,202.976749 4.36320684,205.440334 L114.642076,267.938046 C119.174177,270.506498 126.582904,270.506498 131.115005,267.938046 L241.393874,205.440334 C245.740933,202.976749 245.740933,199.158886 241.393874,196.695302 L131.115005,134.197589 Z" id="Rectangle-4" stroke="#DBA8FF"></path>
                        <path d="M128.939524,151.458156 C125.608908,149.570615 120.148172,149.570615 116.817556,151.458156 L34.8199345,197.928199 C31.6743596,199.710873 31.6743596,202.424762 34.8199345,204.207436 L116.817556,250.677479 C120.148172,252.56502 125.608908,252.56502 128.939524,250.677479 L210.937146,204.207436 C214.082721,202.424762 214.082721,199.710873 210.937146,197.928199 L128.939524,151.458156 Z" id="Rectangle-4" stroke="#94D2FF"></path>
                        <g id="Group-6" transform="translate(54.000000, 128.000000)">
                            <path d="M122.588321,37 L135,37 C136.104569,37 137,37.8954305 137,39 L137,45.8482785 C137.644498,47.1358752 137.072485,48.5778303 135.28396,49.5914307 L73.3891806,84.6687051 C70.7596773,86.1589085 66.4964101,86.1589085 63.8669068,84.6687051 L1.97212747,49.5914307 C1.27563758,49.196713 0.763630502,48.7370356 0.436106241,48.2468111 C0.163162623,47.9049038 5.77428607e-17,47.4715062 0,47 L0,39 C-1.3527075e-16,37.8954305 0.8954305,37 2,37 L14.6677665,37 L63.8669068,9.11765252 C66.4964101,7.62744916 70.7596773,7.62744916 73.3891806,9.11765252 L122.588321,37 Z" id="Combined-Shape" fill="url(#linearGradient-4)"></path>
                            <path d="M73.3891806,1.11765252 L135.28396,36.1949269 C137.913463,37.6851303 137.913463,40.1012273 135.28396,41.5914307 L73.3891806,76.6687051 C70.7596773,78.1589085 66.4964101,78.1589085 63.8669068,76.6687051 L1.97212747,41.5914307 C-0.657375822,40.1012273 -0.657375822,37.6851303 1.97212747,36.1949269 L63.8669068,1.11765252 C66.4964101,-0.372550841 70.7596773,-0.372550841 73.3891806,1.11765252 Z" id="Rectangle-4" fill="url(#linearGradient-5)"></path>
                        </g>
                        <g id="Group-6" transform="translate(54.000000, 108.000000)">
                            <path d="M122.588321,37 L135,37 C136.104569,37 137,37.8954305 137,39 L137,45.8482785 C137.644498,47.1358752 137.072485,48.5778303 135.28396,49.5914307 L73.3891806,84.6687051 C70.7596773,86.1589085 66.4964101,86.1589085 63.8669068,84.6687051 L1.97212747,49.5914307 C1.27563758,49.196713 0.763630502,48.7370356 0.436106241,48.2468111 C0.163162623,47.9049038 5.77428607e-17,47.4715062 0,47 L0,39 C-1.3527075e-16,37.8954305 0.8954305,37 2,37 L14.6677665,37 L63.8669068,9.11765252 C66.4964101,7.62744916 70.7596773,7.62744916 73.3891806,9.11765252 L122.588321,37 Z" id="Combined-Shape" fill="url(#linearGradient-4)"></path>
                            <path d="M73.3891806,1.11765252 L135.28396,36.1949269 C137.913463,37.6851303 137.913463,40.1012273 135.28396,41.5914307 L73.3891806,76.6687051 C70.7596773,78.1589085 66.4964101,78.1589085 63.8669068,76.6687051 L1.97212747,41.5914307 C-0.657375822,40.1012273 -0.657375822,37.6851303 1.97212747,36.1949269 L63.8669068,1.11765252 C66.4964101,-0.372550841 70.7596773,-0.372550841 73.3891806,1.11765252 Z" id="Rectangle-4" fill="url(#linearGradient-5)"></path>
                        </g>
                        <g id="Group-6" transform="translate(54.000000, 88.000000)">
                            <path d="M122.588321,37 L135,37 C136.104569,37 137,37.8954305 137,39 L137,45.8482785 C137.644498,47.1358752 137.072485,48.5778303 135.28396,49.5914307 L73.3891806,84.6687051 C70.7596773,86.1589085 66.4964101,86.1589085 63.8669068,84.6687051 L1.97212747,49.5914307 C1.27563758,49.196713 0.763630502,48.7370356 0.436106241,48.2468111 C0.163162623,47.9049038 5.77428607e-17,47.4715062 0,47 L0,39 C-1.3527075e-16,37.8954305 0.8954305,37 2,37 L14.6677665,37 L63.8669068,9.11765252 C66.4964101,7.62744916 70.7596773,7.62744916 73.3891806,9.11765252 L122.588321,37 Z" id="Combined-Shape" fill="url(#linearGradient-4)"></path>
                            <path d="M73.3891806,1.11765252 L135.28396,36.1949269 C137.913463,37.6851303 137.913463,40.1012273 135.28396,41.5914307 L73.3891806,76.6687051 C70.7596773,78.1589085 66.4964101,78.1589085 63.8669068,76.6687051 L1.97212747,41.5914307 C-0.657375822,40.1012273 -0.657375822,37.6851303 1.97212747,36.1949269 L63.8669068,1.11765252 C66.4964101,-0.372550841 70.7596773,-0.372550841 73.3891806,1.11765252 Z" id="Rectangle-4" fill="#8FCFFF"></path>
                        </g>
                        <path d="M125.814414,100.774182 L163.980778,122.403986 C165.602216,123.322895 165.602216,124.81274 163.980778,125.731649 L125.814414,147.361454 C124.192976,148.280362 121.564105,148.280362 119.942666,147.361454 L81.7763028,125.731649 C80.1548643,124.81274 80.1548643,123.322895 81.7763028,122.403986 L119.942666,100.774182 C121.564105,99.8552731 124.192976,99.8552731 125.814414,100.774182 Z" id="Rectangle-4" fill="#77E2F5"></path>
                        <path d="M125.329954,108.575457 L157.198334,126.636042 C158.552213,127.403318 158.552213,128.647317 157.198334,129.414593 L125.329954,147.475178 C123.976076,148.242454 121.781005,148.242454 120.427126,147.475178 L88.5587461,129.414593 C87.2048676,128.647317 87.2048676,127.403318 88.5587461,126.636042 L120.427126,108.575457 C121.781005,107.808181 123.976076,107.808181 125.329954,108.575457 Z" id="Rectangle-4" fill="#A0F0FF"></path>
                        <path d="M185.814414,0.77418162 L163.980778,122.403986 C165.602216,123.322895 165.602216,124.81274 163.980778,125.731649 L125.814414,147.361454 C124.192976,148.280362 121.564105,148.280362 119.942666,147.361454 L81.7763028,125.731649 C80.1548643,124.81274 80.1548643,123.322895 81.7763028,122.403986 L59.9426661,0.77418162 C61.5641046,-0.144726947 184.192976,-0.144726947 185.814414,0.77418162 Z" id="Rectangle-4" fill="url(#linearGradient-6)" opacity="0.3"></path>
                    </g>
                    <g id="Group-7" transform="translate(345.000000, 37.000000)">
                        <path d="M131.115005,134.197589 C126.582904,131.629137 119.174177,131.629137 114.642076,134.197589 L4.36320684,196.695302 C0.0161472073,199.158886 0.0161472073,202.976749 4.36320684,205.440334 L114.642076,267.938046 C119.174177,270.506498 126.582904,270.506498 131.115005,267.938046 L241.393874,205.440334 C245.740933,202.976749 245.740933,199.158886 241.393874,196.695302 L131.115005,134.197589 Z" id="Rectangle-4" stroke="#DBA8FF"></path>
                        <path d="M128.939524,151.458156 C125.608908,149.570615 120.148172,149.570615 116.817556,151.458156 L34.8199345,197.928199 C31.6743596,199.710873 31.6743596,202.424762 34.8199345,204.207436 L116.817556,250.677479 C120.148172,252.56502 125.608908,252.56502 128.939524,250.677479 L210.937146,204.207436 C214.082721,202.424762 214.082721,199.710873 210.937146,197.928199 L128.939524,151.458156 Z" id="Rectangle-4" stroke="#94D2FF"></path>
                        <g id="Group-6" transform="translate(54.000000, 128.000000)">
                            <path d="M122.588321,37 L135,37 C136.104569,37 137,37.8954305 137,39 L137,45.8482785 C137.644498,47.1358752 137.072485,48.5778303 135.28396,49.5914307 L73.3891806,84.6687051 C70.7596773,86.1589085 66.4964101,86.1589085 63.8669068,84.6687051 L1.97212747,49.5914307 C1.27563758,49.196713 0.763630502,48.7370356 0.436106241,48.2468111 C0.163162623,47.9049038 5.77428607e-17,47.4715062 0,47 L0,39 C-1.3527075e-16,37.8954305 0.8954305,37 2,37 L14.6677665,37 L63.8669068,9.11765252 C66.4964101,7.62744916 70.7596773,7.62744916 73.3891806,9.11765252 L122.588321,37 Z" id="Combined-Shape" fill="url(#linearGradient-4)"></path>
                            <path d="M73.3891806,1.11765252 L135.28396,36.1949269 C137.913463,37.6851303 137.913463,40.1012273 135.28396,41.5914307 L73.3891806,76.6687051 C70.7596773,78.1589085 66.4964101,78.1589085 63.8669068,76.6687051 L1.97212747,41.5914307 C-0.657375822,40.1012273 -0.657375822,37.6851303 1.97212747,36.1949269 L63.8669068,1.11765252 C66.4964101,-0.372550841 70.7596773,-0.372550841 73.3891806,1.11765252 Z" id="Rectangle-4" fill="url(#linearGradient-5)"></path>
                        </g>
                        <g id="Group-6" transform="translate(54.000000, 108.000000)">
                            <path d="M122.588321,37 L135,37 C136.104569,37 137,37.8954305 137,39 L137,45.8482785 C137.644498,47.1358752 137.072485,48.5778303 135.28396,49.5914307 L73.3891806,84.6687051 C70.7596773,86.1589085 66.4964101,86.1589085 63.8669068,84.6687051 L1.97212747,49.5914307 C1.27563758,49.196713 0.763630502,48.7370356 0.436106241,48.2468111 C0.163162623,47.9049038 5.77428607e-17,47.4715062 0,47 L0,39 C-1.3527075e-16,37.8954305 0.8954305,37 2,37 L14.6677665,37 L63.8669068,9.11765252 C66.4964101,7.62744916 70.7596773,7.62744916 73.3891806,9.11765252 L122.588321,37 Z" id="Combined-Shape" fill="url(#linearGradient-4)"></path>
                            <path d="M73.3891806,1.11765252 L135.28396,36.1949269 C137.913463,37.6851303 137.913463,40.1012273 135.28396,41.5914307 L73.3891806,76.6687051 C70.7596773,78.1589085 66.4964101,78.1589085 63.8669068,76.6687051 L1.97212747,41.5914307 C-0.657375822,40.1012273 -0.657375822,37.6851303 1.97212747,36.1949269 L63.8669068,1.11765252 C66.4964101,-0.372550841 70.7596773,-0.372550841 73.3891806,1.11765252 Z" id="Rectangle-4" fill="url(#linearGradient-5)"></path>
                        </g>
                        <g id="Group-6" transform="translate(54.000000, 88.000000)">
                            <path d="M122.588321,37 L135,37 C136.104569,37 137,37.8954305 137,39 L137,45.8482785 C137.644498,47.1358752 137.072485,48.5778303 135.28396,49.5914307 L73.3891806,84.6687051 C70.7596773,86.1589085 66.4964101,86.1589085 63.8669068,84.6687051 L1.97212747,49.5914307 C1.27563758,49.196713 0.763630502,48.7370356 0.436106241,48.2468111 C0.163162623,47.9049038 5.77428607e-17,47.4715062 0,47 L0,39 C-1.3527075e-16,37.8954305 0.8954305,37 2,37 L14.6677665,37 L63.8669068,9.11765252 C66.4964101,7.62744916 70.7596773,7.62744916 73.3891806,9.11765252 L122.588321,37 Z" id="Combined-Shape" fill="url(#linearGradient-4)"></path>
                            <path d="M73.3891806,1.11765252 L135.28396,36.1949269 C137.913463,37.6851303 137.913463,40.1012273 135.28396,41.5914307 L73.3891806,76.6687051 C70.7596773,78.1589085 66.4964101,78.1589085 63.8669068,76.6687051 L1.97212747,41.5914307 C-0.657375822,40.1012273 -0.657375822,37.6851303 1.97212747,36.1949269 L63.8669068,1.11765252 C66.4964101,-0.372550841 70.7596773,-0.372550841 73.3891806,1.11765252 Z" id="Rectangle-4" fill="#8FCFFF"></path>
                        </g>
                        <path d="M125.814414,100.774182 L163.980778,122.403986 C165.602216,123.322895 165.602216,124.81274 163.980778,125.731649 L125.814414,147.361454 C124.192976,148.280362 121.564105,148.280362 119.942666,147.361454 L81.7763028,125.731649 C80.1548643,124.81274 80.1548643,123.322895 81.7763028,122.403986 L119.942666,100.774182 C121.564105,99.8552731 124.192976,99.8552731 125.814414,100.774182 Z" id="Rectangle-4" fill="#77E2F5"></path>
                        <path d="M125.329954,108.575457 L157.198334,126.636042 C158.552213,127.403318 158.552213,128.647317 157.198334,129.414593 L125.329954,147.475178 C123.976076,148.242454 121.781005,148.242454 120.427126,147.475178 L88.5587461,129.414593 C87.2048676,128.647317 87.2048676,127.403318 88.5587461,126.636042 L120.427126,108.575457 C121.781005,107.808181 123.976076,107.808181 125.329954,108.575457 Z" id="Rectangle-4" fill="#A0F0FF"></path>
                        <path d="M185.814414,0.77418162 L163.980778,122.403986 C165.602216,123.322895 165.602216,124.81274 163.980778,125.731649 L125.814414,147.361454 C124.192976,148.280362 121.564105,148.280362 119.942666,147.361454 L81.7763028,125.731649 C80.1548643,124.81274 80.1548643,123.322895 81.7763028,122.403986 L59.9426661,0.77418162 C61.5641046,-0.144726947 184.192976,-0.144726947 185.814414,0.77418162 Z" id="Rectangle-4" fill="url(#linearGradient-6)" opacity="0.3"></path>
                    </g>
                    <g id="Group-5" transform="translate(115.000000, 37.000000)">
                        <path d="M36.8661192,131 L143.645502,62.6280057 C153.285307,45.2107496 154.582973,33.1669024 147.5385,26.4964639 C136.971791,16.4908062 118.062942,6.48514851 106.383947,8.70862801 C105.840963,8.81200267 101.378663,2.59405941 95.2610942,0.926449788 C89.1435254,-0.74115983 84.6943844,-0.74115983 78.020673,5.92927864 C77.4646331,6.48504587 69.1223911,-1.2970297 56.8872535,2.03818953 C44.6521159,5.37340877 33.5292635,17.602546 27.9678373,29.8316832 C22.4064111,42.0608204 19.0695554,61.5162659 19.0695554,62.6280057 C19.0695554,63.7397454 9.6151309,68.7425743 3.4975621,84.3069307 C-2.62000671,99.8712871 0.160706385,104.874116 5.16598995,112.656294 C8.50284566,117.844413 19.0695554,123.958982 36.8661192,131 Z" id="Path-2" fill="url(#linearGradient-7)"></path>
                        <path d="M45.8347381,130.705963 L130.798198,81.2750683 C141.904532,72.3886153 148.753439,62.2062213 151.344917,50.7278862 C155.232134,33.5103835 151.344917,29.6225604 149.12365,27.4009471 C146.902383,25.1793339 138.572632,19.0698975 125.800347,27.4009471 C124.906214,27.9841686 124.536003,27.6138998 124.689714,26.2901405 C124.689714,20.7361074 122.838658,17.0334186 119.136547,15.1820743 C113.583379,12.4050577 107.474895,14.626671 101.921728,20.7361074 C101.0122,21.7367436 100.641989,21.7367436 100.811094,20.7361074 C95.2579271,15.922612 88.5941263,14.626671 80.8196921,16.8482842 C69.1580408,20.1807041 58.6070229,31.2887703 53.0538556,43.5076431 C47.5006883,55.726516 45.8347381,72.9440186 45.8347381,74.0548252 C45.8347381,75.1656319 35.2837202,82.9412782 29.1752362,98.4925709 C23.0667521,114.043864 24.1773856,116.82088 29.1752362,124.596527 C32.5071366,129.780291 38.0603039,131.81677 45.8347381,130.705963 Z" id="Path-2" fill="#D6EEFF"></path>
                    </g>
                    <polyline id="Line-6" stroke="#DBA8FF" stroke-linecap="square" points="208 152 208 271.5 301.5 326.5"></polyline>
                    <circle id="Oval-2" fill="#94D2FF" cx="208" cy="149" r="4"></circle>
                    <circle id="Oval-2" fill="#94D2FF" cx="397" cy="270" r="4"></circle>
                    <circle id="Oval-2" fill="#94D2FF" cx="302" cy="326" r="4"></circle>
                    <text id="生产站点" font-family="PingFangSC-Regular, PingFang SC" font-size="18" font-weight="normal" fill="#499DF2">
                        <tspan x="87" y="450">生产站点</tspan>
                    </text>
                    <text id="灾备站点" font-family="PingFangSC-Regular, PingFang SC" font-size="18" font-weight="normal" fill="#499DF2">
                        <tspan x="432" y="108">灾备站点</tspan>
                    </text>
                    <text id="华为云-|-华东-上海二" font-family="PingFangSC-Regular, PingFang SC" font-size="18" font-weight="normal" fill="#499DF2">
                        <tspan x="96" y="19">华为云 | 华东-上海二</tspan>
                    </text>
                </g>
            </g>
        </g>
    </g>
</svg>