<?xml version="1.0" encoding="UTF-8" standalone="no"?>
<svg width="44px" height="32px" viewBox="0 0 44 32" version="1.1" xmlns="http://www.w3.org/2000/svg" xmlns:xlink="http://www.w3.org/1999/xlink">
    <!-- Generator: Sketch 49.2 (51160) - http://www.bohemiancoding.com/sketch -->
    <title>Storage-OBS</title>
    <desc>Created with Sketch.</desc>
    <defs></defs>
    <g id="Page-1" stroke="none" stroke-width="1" fill="none" fill-rule="evenodd">
        <g id="Storage-OBS" fill="#3399FF" fill-rule="nonzero">
            <path d="M33.3,8.1 C31.7,3.4 27.3,0 22,0 C16.7,0 12.3,3.4 10.7,8.1 C4.7,8.7 0,13.8 0,20 C0,26.6 5.4,32 12,32 L32,32 C38.6,32 44,26.6 44,20 C44,13.8 39.3,8.7 33.3,8.1 Z M18.5,22 L18.5,21.5 L13,21.5 C12.6,21.5 12.5,21.4 12.5,21.4 C12.5,21.4 12.5,21.2 12.8,20.9 L21,12.7 C21.3,12.4 21.6,12.2 22.1,12.3 C22.5,12.3 22.9,12.5 23.1,12.7 L31.1,20.8 C31.4,21.1 31.4,21.2 31.4,21.3 C31.4,21.3 31.2,21.4 30.9,21.4 L25.7,21.4 L25.7,22 L25.7,22.5 L25.7,30 L18.7,30 L18.7,22.5 L18.7,22 L18.5,22 Z M32,30 L26.5,30 L26.5,22.5 L30.7,22.5 C31.7,22.5 32,22 32.2,21.8 C32.3,21.5 32.4,21 31.7,20.2 L23.7,12.1 C23.2,11.6 22.6,11.4 21.9,11.4 C21.9,11.4 21.9,11.4 21.9,11.4 C21.2,11.4 20.6,11.7 20.1,12.1 L11.9,20.3 C11.2,21 11.3,21.6 11.4,21.8 C11.5,22.1 11.9,22.5 12.9,22.5 L17.4,22.5 L17.4,30 L12,30 C6.5,30 2,25.5 2,20 C2,14.9 5.8,10.6 10.9,10.1 C11.7,10 12.3,9.5 12.6,8.8 C14,4.8 17.8,2.1 22,2.1 C26.2,2.1 30,4.8 31.4,8.8 C31.7,9.5 32.3,10 33.1,10.1 C38.2,10.7 42,14.9 42,20 C42,25.5 37.5,30 32,30 Z" id="Shape"></path>
        </g>
    </g>
</svg>