<?xml version="1.0" encoding="UTF-8" standalone="no"?>
<svg width="44px" height="32px" viewBox="0 0 44 32" version="1.1" xmlns="http://www.w3.org/2000/svg" xmlns:xlink="http://www.w3.org/1999/xlink">
    <!-- Generator: Sketch 49.2 (51160) - http://www.bohemiancoding.com/sketch -->
    <title>Computing-ECS</title>
    <desc>Created with Sketch.</desc>
    <defs></defs>
    <g id="Page-1" stroke="none" stroke-width="1" fill="none" fill-rule="evenodd">
        <g id="Computing-ECS" fill="#3399FF" fill-rule="nonzero">
            <circle id="Oval" cx="29.5" cy="18.5" r="1.5"></circle>
            <path d="M31.8,26 L11.4,26 C11.1,26 10.9,26.2 10.9,26.5 C10.9,26.8 11.1,27 11.4,27 L31.9,27 C32.2,27 32.4,26.8 32.4,26.5 C32.4,26.2 32.1,26 31.8,26 Z" id="Shape"></path>
            <path d="M29.5,14 L14.5,14 C12,14 10,16 10,18.5 C10,21 12,23 14.5,23 L29.5,23 C32,23 34,21 34,18.5 C34,16 32,14 29.5,14 Z M29.5,22 L14.5,22 C12.6,22 11,20.4 11,18.5 C11,16.6 12.6,15 14.5,15 L29.5,15 C31.4,15 33,16.6 33,18.5 C33,20.4 31.4,22 29.5,22 Z" id="Shape"></path>
            <path d="M33.3,8.1 C31.7,3.4 27.3,0 22,0 C16.7,0 12.3,3.4 10.7,8.1 C4.7,8.7 0,13.8 0,20 C0,26.6 5.4,32 12,32 L32,32 C38.6,32 44,26.6 44,20 C44,13.8 39.3,8.7 33.3,8.1 Z M32,30 L12,30 C6.5,30 2,25.5 2,20 C2,14.9 5.8,10.6 10.9,10.1 C11.7,10 12.3,9.5 12.6,8.8 C14,4.8 17.8,2.1 22,2.1 C26.2,2.1 30,4.8 31.4,8.8 C31.7,9.5 32.3,10 33.1,10.1 C38.2,10.7 42,14.9 42,20 C42,25.5 37.5,30 32,30 Z" id="Shape"></path>
        </g>
    </g>
</svg>