<svg viewBox="0 0 12 16" version="1.1" xmlns="http://www.w3.org/2000/svg" xmlns:xlink="http://www.w3.org/1999/xlink">
    <!-- Generator: Sketch 50.2 (55047) - http://www.bohemiancoding.com/sketch -->
    <title>Group</title>
    <desc>Created with Sketch.</desc>
    <defs></defs>
    <g id="Page-1" stroke="none" stroke-width="1" fill="none" fill-rule="evenodd">
        <g id="icon" transform="translate(-433.000000, -19.000000)" fill="#3399FF">
            <g id="Group" transform="translate(433.000000, 19.000000)">
                <path d="M0,0 L12,0 L12,16 L0,16 L0,0 Z M2,2 L2,4 L10,4 L10,2 L2,2 Z M2,6 L2,8 L10,8 L10,6 L2,6 Z M6,14 C6.55228475,14 7,13.5522847 7,13 C7,12.4477153 6.55228475,12 6,12 C5.44771525,12 5,12.4477153 5,13 C5,13.5522847 5.44771525,14 6,14 Z" id="Combined-Shape"></path>
            </g>
        </g>
    </g>
</svg>