<svg viewBox="0 0 16 16" version="1.1" xmlns="http://www.w3.org/2000/svg" xmlns:xlink="http://www.w3.org/1999/xlink">
    <!-- Generator: Sketch 50.2 (55047) - http://www.bohemiancoding.com/sketch -->
    <title>Group 3</title>
    <desc>Created with Sketch.</desc>
    <defs></defs>
    <g id="Page-1" stroke="none" stroke-width="1" fill="none" fill-rule="evenodd">
        <g id="icon" transform="translate(-461.000000, -49.000000)" fill="#3399FF">
            <g id="Group-3" transform="translate(461.000000, 49.000000)">
                <path d="M7,12 L7,8 L0,8 L0,0 L16,0 L16,8 L9,8 L9,12 L10,12 L10,13 L15,13 L15,15 L10,15 L10,16 L6,16 L6,15 L1,15 L1,13 L6,13 L6,12 L7,12 Z M1,1 L1,3 L3,3 L3,1 L1,1 Z M1,5 L1,7 L3,7 L3,5 L1,5 Z M4,1 L4,3 L6,3 L6,1 L4,1 Z M4,5 L4,7 L6,7 L6,5 L4,5 Z M13,1 L13,3 L15,3 L15,1 L13,1 Z M13,5 L13,7 L15,7 L15,5 L13,5 Z" id="Combined-Shape"></path>
            </g>
        </g>
    </g>
</svg>