<svg viewBox="0 0 16 16" version="1.1" xmlns="http://www.w3.org/2000/svg" xmlns:xlink="http://www.w3.org/1999/xlink">
    <!-- Generator: Sketch 50.2 (55047) - http://www.bohemiancoding.com/sketch -->
    <title>Group</title>
    <desc>Created with Sketch.</desc>
    <defs></defs>
    <g id="Page-1" stroke="none" stroke-width="1" fill="none" fill-rule="evenodd">
        <g id="icon" transform="translate(-461.000000, -19.000000)" fill="#3399FF">
            <g id="Group" transform="translate(461.000000, 19.000000)">
                <path d="M8,15.9499909 C6.85887984,15.7183558 6,14.709479 6,13.5 C6,12.1192881 7.11928813,11 8.5,11 C8.68501881,11 8.86534331,11.0200987 9.0389093,11.0582318 C9.2475211,9.88822511 10.2700325,9 11.5,9 C12.7242314,9 13.7429373,9.8799598 13.958119,11.041881 C15.1200402,11.2570627 16,12.2757686 16,13.5 C16,14.709479 15.1411202,15.7183558 14,15.9499909 L14,16 L8,16 L8,15.9499909 Z M6.05050863,16 L0,16 L0,0 L12,0 L12,8.03544443 C11.8366985,8.01208598 11.6697607,8 11.5,8 C10.1022989,8 8.89595259,8.8192876 8.33500352,10.0038205 C6.47861452,10.0899713 5,11.6223112 5,13.5 C5,14.4793441 5.40223361,15.3647415 6.05050863,16 Z M2,2 L2,4 L10,4 L10,2 L2,2 Z M2,6 L2,8 L10,8 L10,6 L2,6 Z" id="Combined-Shape"></path>
            </g>
        </g>
    </g>
</svg>