<?xml version="1.0" encoding="utf-8"?>
<!-- Generator: Adobe Illustrator 17.0.0, SVG Export Plug-In . SVG Version: 6.00 Build 0)  -->
<!DOCTYPE svg PUBLIC "-//W3C//DTD SVG 1.1//EN" "http://www.w3.org/Graphics/SVG/1.1/DTD/svg11.dtd">
<svg version="1.1" id="图层_1" xmlns="http://www.w3.org/2000/svg" xmlns:xlink="http://www.w3.org/1999/xlink" x="0px" y="0px"
	 width="16px" height="16px" viewBox="0 0 16 16" style="enable-background:new 0 0 16 16;" xml:space="preserve">
<style type="text/css">
	.st0{fill:#E94E4C;}
	.st1{fill:#5093D0;}
	.st2{fill:#999999;}
	.st3{fill:#F08438;}
	.st4{fill:#4DB99B;}
	.st5{fill:#F6D342;}
	.st6{clip-path:url(#XMLID_2_);}
	.st7{clip-path:url(#XMLID_3_);fill:#5093D0;}
	.st8{fill-rule:evenodd;clip-rule:evenodd;fill:#F6D342;}
	.st9{clip-path:url(#XMLID_4_);}
	.st10{clip-path:url(#XMLID_5_);fill:#999999;}
	.st11{clip-path:url(#XMLID_6_);}
	.st12{clip-path:url(#XMLID_7_);fill:#999999;}
</style>
<path id="XMLID_32_" class="st4" d="M8,0C3.6,0,0,3.6,0,8c0,4.4,3.6,8,8,8s8-3.6,8-8C16,3.6,12.4,0,8,0z M11.6,8.8l-0.2,0.2
	l-3.2,3.2l-1.1-1.1l2.4-2.4h-6V7.2h5.9L7.1,4.8l1.1-1.1l3.2,3.2L12.4,8L11.6,8.8z"/>
<g id="XMLID_347_">
	<defs>
		<path id="XMLID_348_" d="M13,195.4l-0.9-0.5l-0.5,0.9l-0.9-0.5l0.5-0.9l-2.7-1.6v3.2l0.9,0v1l-0.9,0v1h-1v-1l-1.1,0l0-1l1.1,0
			v-3.2l-2.8,1.6l0.5,0.8l-0.9,0.5l-0.5-0.8L3,195.4l-0.5-0.9l0.8-0.5l-0.5-0.9l0.9-0.5l0.5,0.9l2.8-1.6l-2.8-1.6l-0.5,0.8l-0.9-0.5
			l0.5-0.8l-0.8-0.4l0.5-0.9l0.8,0.4l0.5-0.9l0.9,0.5l-0.5,0.9l2.8,1.6v-3.2h-1v-1h1V186h1v0.9h1v1h-1v3.2l2.7-1.6l-0.5-0.8l0.9-0.5
			l0.5,0.8l0.8-0.5l0.5,0.9l-0.8,0.5l0.5,0.9l-0.9,0.5l-0.5-0.9L9,191.9l2.8,1.6l0.5-0.8l0.9,0.5l-0.5,0.8l0.9,0.5L13,195.4z M8,184
			c-4.4,0-8,3.6-8,8c0,4.4,3.6,8,8,8c4.4,0,8-3.6,8-8C16,187.6,12.4,184,8,184z"/>
	</defs>
	<clipPath id="XMLID_2_">
		<use xlink:href="#XMLID_348_"  style="overflow:visible;"/>
	</clipPath>
	<g id="XMLID_351_" class="st6">
		<defs>
			<rect id="XMLID_352_" x="-141" y="-191" width="800" height="600"/>
		</defs>
		<clipPath id="XMLID_3_">
			<use xlink:href="#XMLID_352_"  style="overflow:visible;"/>
		</clipPath>
	</g>
</g>
<g id="XMLID_22_">
	<defs>
		<circle id="XMLID_23_" cx="54" cy="192" r="2.5"/>
	</defs>
	<clipPath id="XMLID_4_">
		<use xlink:href="#XMLID_23_"  style="overflow:visible;"/>
	</clipPath>
	<g id="XMLID_24_" class="st9">
		<defs>
			<rect id="XMLID_25_" x="-197" y="-191" width="800" height="600"/>
		</defs>
		<clipPath id="XMLID_5_">
			<use xlink:href="#XMLID_25_"  style="overflow:visible;"/>
		</clipPath>
	</g>
</g>
<g id="XMLID_15_">
	<defs>
		<path id="XMLID_16_" d="M59.5,189.6c-1-0.7-2.1-1.1-3.3-1.1c-0.4,0-0.8,0-1.2,0.1c1.2,0.4,2.1,1.3,2.4,2.5l0,0
			c0.4,1.7,0.2,3.4-0.7,4.9c-0.7,1.2-1.8,2.2-3.1,2.7l-0.4-0.9c1.1-0.5,2-1.3,2.6-2.3c0.2-0.3,0.3-0.7,0.5-1.1
			c-0.6,0.6-1.4,0.9-2.4,0.9c-0.3,0-0.7-0.1-1-0.2l0,0c-1.7-0.5-3.1-1.5-4-3c-0.7-1.2-1-2.6-0.8-4l1,0.1c-0.1,1.2,0.1,2.4,0.7,3.4
			c0.2,0.3,0.4,0.6,0.7,0.9c-0.1-0.2-0.1-0.5-0.1-0.7c0-1,0.4-1.9,1.1-2.5l0,0c1.2-1.2,2.9-1.9,4.6-1.9c1.4,0,2.8,0.5,3.9,1.3
			L59.5,189.6z M54,184c-4.4,0-8,3.6-8,8c0,4.4,3.6,8,8,8s8-3.6,8-8C62,187.6,58.4,184,54,184z"/>
	</defs>
	<clipPath id="XMLID_6_">
		<use xlink:href="#XMLID_16_"  style="overflow:visible;"/>
	</clipPath>
	<g id="XMLID_19_" class="st11">
		<defs>
			<rect id="XMLID_20_" x="-197" y="-191" width="800" height="600"/>
		</defs>
		<clipPath id="XMLID_7_">
			<use xlink:href="#XMLID_20_"  style="overflow:visible;"/>
		</clipPath>
	</g>
</g>
</svg>
