<svg viewBox="0 0 32 32" version="1.1" xmlns="http://www.w3.org/2000/svg" xmlns:xlink="http://www.w3.org/1999/xlink">
    <!-- Generator: Sketch 50.2 (55047) - http://www.bohemiancoding.com/sketch -->
    <title>resource</title>
    <desc>Created with Sketch.</desc>
    <defs></defs>
    <g id="Page-1" stroke="none" stroke-width="1" fill="none" fill-rule="evenodd">
        <g id="icon" transform="translate(-449.000000, -19.000000)" fill="#FFFFFF">
            <g id="resource" transform="translate(449.000000, 19.000000)">
                <path d="M0,0 L28,0 L28,10 L0,10 L0,0 Z M2,2 L2,8 L26,8 L26,2 L2,2 Z M0,22 L32,22 L32,32 L0,32 L0,22 Z M2,24 L2,30 L30,30 L30,24 L2,24 Z M0,12 L30,12 L30,20 L0,20 L0,12 Z M2,14 L2,18 L28,18 L28,14 L2,14 Z M12,26 L14,26 L14,28 L12,28 L12,26 Z M4,4 L6,4 L6,6 L4,6 L4,4 Z M8,4 L10,4 L10,6 L8,6 L8,4 Z M12,4 L24,4 L24,6 L12,6 L12,4 Z M16,26 L18,26 L18,28 L16,28 L16,26 Z M20,26 L22,26 L22,28 L20,28 L20,26 Z M24,26 L28,26 L28,28 L24,28 L24,26 Z" id="Combined-Shape"></path>
            </g>
        </g>
    </g>
</svg>