<svg width=" 480px" fill="#cccccc" height=" 135px" viewBox="0 0 480 135" version="1.1" xmlns="http://www.w3.org/2000/svg">        <rect x="142.4" y="26" width="3.3" height="2"></rect><rect x="144.7" y="110.5" width="3.3" height="2.2"></rect><rect x="131.5" y="110.5" width="3.3" height="2.2"></rect><rect x="129.2" y="26" width="3.3" height="2"></rect><rect x="129.5" y="69.9" width="3.3" height="2.2"></rect><rect x="136" y="69.9" width="3.3" height="2.2"></rect><rect x="142.6" y="69.9" width="3.3" height="2.2"></rect><rect x="135.8" y="26" width="3.3" height="2"></rect><rect x="138.1" y="110.5" width="3.3" height="2.2"></rect><rect x="124.9" y="110.5" width="3.3" height="2.2"></rect><path d="M49.2,93.8L47,94.1c0.2,1.1,0.4,2.3,0.8,3.4l2.1-0.7C49.6,95.9,49.3,94.9,49.2,93.8z"></path><path d="M60.2,71.9c-1.1,0.5-2.1,1-3.1,1.6l1.2,1.9c0.9-0.5,1.8-1,2.8-1.5L60.2,71.9z"></path><path d="M53.3,106.2c0.8,0.8,1.7,1.5,2.7,2.2l1.3-1.8c-0.9-0.6-1.7-1.3-2.4-2L53.3,106.2z"></path><path d="M59,110.2c1,0.5,2.1,0.9,3.2,1.3l0.7-2.1c-1-0.3-2-0.7-2.9-1.2L59,110.2z"></path><path d="M49.1,100.7c0.5,1,1.2,2,1.9,2.9l1.7-1.3c-0.6-0.8-1.2-1.7-1.7-2.6L49.1,100.7z"></path><rect x="70.2" y="69.9" width="3.3" height="2.2"></rect><path d="M66.8,70.1c-1.1,0.2-2.3,0.4-3.4,0.7l0.6,2.1c1-0.3,2-0.5,3.1-0.6L66.8,70.1z"></path><path d="M65.5,112.3c1.1,0.2,2.3,0.3,3.4,0.4l0.1-2.2c-1,0-2.1-0.1-3.1-0.3L65.5,112.3z"></path><path d="M55.8,77.2l-1.4-1.7c-0.9,0.8-1.7,1.6-2.5,2.4l1.7,1.4C54.2,78.7,55,77.9,55.8,77.2z"></path><path d="M51.7,81.9l-1.9-1.1c-0.6,1-1.1,2-1.6,3.1l2,0.8C50.7,83.8,51.2,82.8,51.7,81.9z"></path><rect x="72.3" y="110.5" width="3.3" height="2.2"></rect><rect x="116.3" y="69.9" width="3.3" height="2.2"></rect><rect x="105.2" y="110.5" width="3.3" height="2.2"></rect><rect x="109.7" y="69.9" width="3.3" height="2.2"></rect><rect x="103.1" y="69.9" width="3.3" height="2.2"></rect><rect x="118.3" y="110.5" width="3.3" height="2.2"></rect><rect x="98.6" y="110.5" width="3.3" height="2.2"></rect><rect x="111.8" y="110.5" width="3.3" height="2.2"></rect><rect x="122.9" y="69.9" width="3.3" height="2.2"></rect><rect x="76.8" y="69.9" width="3.3" height="2.2"></rect><rect x="83.4" y="69.9" width="3.3" height="2.2"></rect><rect x="78.8" y="110.5" width="3.3" height="2.2"></rect><rect x="85.4" y="110.5" width="3.3" height="2.2"></rect><rect x="90" y="69.9" width="3.3" height="2.2"></rect><rect x="92" y="110.5" width="3.3" height="2.2"></rect><rect x="96.5" y="69.9" width="3.3" height="2.2"></rect><path d="M49.4,87.7l-2.1-0.5c-0.2,1.1-0.4,2.3-0.4,3.5l2.2,0.1C49.1,89.7,49.2,88.7,49.4,87.7z"></path><rect x="344.2" y="110.5" width="3.3" height="2.2"></rect><rect x="337.2" y="110.5" width="3.3" height="2.2"></rect><rect x="416.6" y="110.5" width="3.3" height="2.2"></rect><rect x="410" y="110.5" width="3.3" height="2.2"></rect><rect x="423.2" y="110.5" width="3.3" height="2.2"></rect><rect x="429.7" y="110.5" width="3.3" height="2.2"></rect><rect x="403.4" y="110.5" width="3.3" height="2.2"></rect><rect x="436.3" y="110.5" width="3.3" height="2.2"></rect><rect x="370.5" y="110.5" width="3.3" height="2.2"></rect><rect x="363.9" y="110.5" width="3.3" height="2.2"></rect><rect x="396.8" y="110.5" width="3.3" height="2.2"></rect><rect x="350.7" y="110.5" width="3.3" height="2.2"></rect><rect x="357.7" y="110.5" width="3.3" height="2.2"></rect><rect x="377.1" y="110.5" width="3.3" height="2.2"></rect><rect x="390.2" y="110.5" width="3.3" height="2.2"></rect><rect x="383.7" y="110.5" width="3.3" height="2.2"></rect><path d="M35.6,70.5c-3.9,0-7.1-3.2-7.1-7.1s3.2-7.1,7.1-7.1s7.1,3.2,7.1,7.1S39.5,70.5,35.6,70.5z M35.6,58.3c-2.8,0-5.1,2.3-5.1,5.1s2.3,5.1,5.1,5.1s5.1-2.3,5.1-5.1S38.4,58.3,35.6,58.3z"></path><path d="M108.9,25.9h-7.3v-7.3c0-0.6-0.4-1-1-1s-1,0.4-1,1v7.3h-7.3c-0.6,0-1,0.4-1,1s0.4,1,1,1h7.3v7.3c0,0.6,0.4,1,1,1s1-0.4,1-1v-7.3h7.3c0.6,0,1-0.4,1-1S109.5,25.9,108.9,25.9z"></path><path d="M357.5,40.7c-4,0-7.3-3.3-7.3-7.3c0-4,3.3-7.3,7.3-7.3s7.3,3.3,7.3,7.3C364.8,37.4,361.5,40.7,357.5,40.7z M357.5,28.1c-2.9,0-5.3,2.4-5.3,5.3s2.4,5.3,5.3,5.3s5.3-2.4,5.3-5.3S360.4,28.1,357.5,28.1z"></path><path d="M442.9,86.4c-3,0-5.5-2.5-5.5-5.5s2.5-5.5,5.5-5.5s5.5,2.5,5.5,5.5S445.9,86.4,442.9,86.4z M442.9,77.4c-1.9,0-3.5,1.6-3.5,3.5s1.6,3.5,3.5,3.5s3.5-1.6,3.5-3.5S444.8,77.4,442.9,77.4z"></path><rect x="122.6" y="26" width="3.3" height="2"></rect><polygon points="420,61.7 422.2,61.7 422.2,58 425.9,58 425.9,55.8 422.2,55.8 422.2,52.1 420,52.1 420,55.8 416.3,55.8 416.3,58 420,58 "></polygon><rect x="411.2" y="55.7" width="1.8" height="2.2"></rect><rect x="404" y="55.7" width="3.6" height="2.2"></rect><rect x="396.8" y="55.7" width="3.6" height="2.2"></rect><rect x="389.5" y="55.7" width="3.6" height="2.2"></rect><rect x="382.3" y="55.7" width="3.6" height="2.2"></rect><circle cx="171.6" cy="19.6" r="3.4"></circle><circle cx="187.4" cy="19.6" r="3.4"></circle><circle cx="203.2" cy="19.6" r="3.4"></circle><path d="M206.5,71.9l5.4-5.4c0.4-0.4,0.4-1,0-1.4s-1-0.4-1.4,0l-5.4,5.4l-5.4-5.4c-0.4-0.4-1-0.4-1.4,0s-0.4,1,0,1.4l5.4,5.4l-5.4,5.4c-0.4,0.4-0.4,1,0,1.4s1,0.4,1.4,0l5.4-5.4l5.4,5.4c0.4,0.4,1,0.4,1.4,0s0.4-1,0-1.4L206.5,71.9z"></path><path d="M276.6,71.9l5.4-5.4c0.4-0.4,0.4-1,0-1.4s-1-0.4-1.4,0l-5.4,5.4l-5.4-5.4c-0.4-0.4-1-0.4-1.4,0s-0.4,1,0,1.4l5.4,5.4l-5.4,5.4c-0.4,0.4-0.4,1,0,1.4s1,0.4,1.4,0l5.4-5.4l5.4,5.4c0.4,0.4,1,0.4,1.4,0s0.4-1,0-1.4L276.6,71.9z"></path><path d="M312.6,21H217c-0.6,0-1-0.4-1-1s0.4-1,1-1h95.6c0.6,0,1,0.4,1,1S313.2,21,312.6,21z"></path><path d="M322.2,5H158.4c-1.7,0-3,1.4-3,3v118c0,1.7,1.4,3,3,3h163.7c1.7,0,3-1.4,3-3V8C325.2,6.4,323.9,5,322.2,5z M158.4,7h163.7c0.6,0,1,0.5,1,1v24.4H157.4V8C157.4,7.5,157.9,7,158.4,7z M322.2,127H158.4c-0.6,0-1-0.5-1-1V34.4h165.8V126C323.2,126.5,322.8,127,322.2,127z"></path><path d="M245.2,91.9c-0.2,0-0.4-0.1-0.6-0.2c-5.2-4.2-9.3-0.2-9.5-0.1c-0.4,0.4-1,0.4-1.4,0s-0.4-1,0-1.4c0.1-0.1,5.5-5.4,12.1-0.1c0.4,0.3,0.5,1,0.2,1.4C245.8,91.8,245.5,91.9,245.2,91.9z"></path><rect x="330.9" y="110.5" width="3.3" height="2.2"></rect>    </svg>