<?xml version="1.0" encoding="UTF-8" standalone="no"?>
<svg width="32px" height="28px" viewBox="0 0 32 28" version="1.1" xmlns="http://www.w3.org/2000/svg" xmlns:xlink="http://www.w3.org/1999/xlink">
    <!-- Generator: Sketch 49.2 (51160) - http://www.bohemiancoding.com/sketch -->
    <title>Group 5</title>
    <desc>Created with Sketch.</desc>
    <defs></defs>
    <g id="Page-1" stroke="none" stroke-width="1" fill="none" fill-rule="evenodd">
        <g id="icon" transform="translate(-442.000000, -56.000000)">
            <g id="Group-5" transform="translate(442.000000, 56.000000)">
                <rect id="Rectangle-15" stroke="#FFFFFF" stroke-width="2" x="1" y="1" width="30" height="22" rx="2"></rect>
                <path d="M9.6413224,8.13957314 C9.68700383,7.98448653 9.77102912,7.83829355 9.89339828,7.71592439 C10.2839226,7.3254001 10.9170876,7.3254001 11.3076118,7.71592439 L17.6316302,14.0399427 L25.3786797,6.29289322 C25.7692039,5.90236893 26.4023689,5.90236893 26.7928932,6.29289322 C27.1834175,6.68341751 27.1834175,7.31658249 26.7928932,7.70710678 L18.5736085,15.9263915 C18.5259912,16.0257498 18.4610149,16.1188705 18.3786797,16.2012058 C18.1427714,16.437114 17.8183202,16.5305146 17.5123002,16.4814075 C17.2865203,16.4615339 17.0662043,16.3651942 16.8933983,16.1923882 C16.8209646,16.1199544 16.7619657,16.0391733 16.7164017,15.9531414 L10.6862915,9.92303117 L7.1507576,13.4585651 C6.7602333,13.8490894 6.12706832,13.8490894 5.73654403,13.4585651 C5.34601974,13.0680408 5.34601974,12.4348758 5.73654403,12.0443515 L9.6413224,8.13957314 Z" id="Combined-Shape" fill="#FFFFFF"></path>
                <path d="M16,13 L16,13 C16.5522847,13 17,13.4477153 17,14 L17,40 C17,40.5522847 16.5522847,41 16,41 L16,41 C15.4477153,41 15,40.5522847 15,40 L15,14 C15,13.4477153 15.4477153,13 16,13 Z" id="Rectangle-16" fill="#FFFFFF" transform="translate(16.000000, 27.000000) rotate(90.000000) translate(-16.000000, -27.000000) "></path>
            </g>
        </g>
    </g>
</svg>