<?xml version="1.0" encoding="UTF-8" standalone="no"?>
<svg width="32px" height="28px" viewBox="0 0 32 28" version="1.1" xmlns="http://www.w3.org/2000/svg" xmlns:xlink="http://www.w3.org/1999/xlink">
    <!-- Generator: Sketch 49.2 (51160) - http://www.bohemiancoding.com/sketch -->
    <title>data</title>
    <desc>Created with Sketch.</desc>
    <defs></defs>
    <g id="Page-1" stroke="none" stroke-width="1" fill="none" fill-rule="evenodd">
        <g id="resourceï¼data" transform="translate(-30.000000, -73.000000)">
            <g id="data" transform="translate(30.000000, 73.000000)">
                <rect id="Rectangle-15" stroke="#DFE0E5" stroke-width="2" x="1" y="1" width="30" height="22" rx="2"></rect>
                <path d="M7,6 C7.55228475,6 8,6.44771525 8,7 L8,19 C8,19.5522847 7.55228475,20 7,20 C6.44771525,20 6,19.5522847 6,19 L6,7 C6,6.44771525 6.44771525,6 7,6 Z M30,27 C30,27.5522847 29.5522847,28 29,28 L3,28 C2.44771525,28 2,27.5522847 2,27 C2,26.4477153 2.44771525,26 3,26 L29,26 C29.5522847,26 30,26.4477153 30,27 Z M13,10 C13.5522847,10 14,10.4477153 14,11 L14,19 C14,19.5522847 13.5522847,20 13,20 C12.4477153,20 12,19.5522847 12,19 L12,11 C12,10.4477153 12.4477153,10 13,10 Z M19,8 C19.5522847,8 20,8.44771525 20,9 L20,19 C20,19.5522847 19.5522847,20 19,20 C18.4477153,20 18,19.5522847 18,19 L18,9 C18,8.44771525 18.4477153,8 19,8 Z M25,14 C25.5522847,14 26,14.4477153 26,15 L26,19 C26,19.5522847 25.5522847,20 25,20 C24.4477153,20 24,19.5522847 24,19 L24,15 C24,14.4477153 24.4477153,14 25,14 Z" id="Combined-Shape" fill="#DFE0E5"></path>
            </g>
        </g>
    </g>
</svg>