<?xml version="1.0" encoding="UTF-8" standalone="no"?>
<svg width="60px" height="38px" viewBox="0 0 60 38" version="1.1" xmlns="http://www.w3.org/2000/svg" xmlns:xlink="http://www.w3.org/1999/xlink">
    <!-- Generator: Sketch 49.2 (51160) - http://www.bohemiancoding.com/sketch -->
    <title>adc</title>
    <desc>Created with Sketch.</desc>
    <defs>
        <rect id="path-1" x="27" y="2" width="13" height="6.75"></rect>
        <polygon id="path-2" points="18 0 27.75 0 29.25 6 42 6 42 23 18 23"></polygon>
    </defs>
    <g id="Page-1" stroke="none" stroke-width="1" fill="none" fill-rule="evenodd">
        <g id="resource－protect" transform="translate(-976.000000, -312.000000)">
            <g id="Group-6" transform="translate(538.000000, 239.000000)">
                <g id="adc" transform="translate(438.000000, 73.000000)">
                    <g id="Rectangle-20">
                        <use fill="#FFFFFF" fill-rule="evenodd" xlink:href="#path-1"></use>
                        <rect stroke="#333333" stroke-width="2" x="28" y="3" width="11" height="4.75"></rect>
                    </g>
                    <g id="Rectangle-18">
                        <use fill="#FFE363" fill-rule="evenodd" xlink:href="#path-2"></use>
                        <path stroke="#333333" stroke-width="2" d="M19,1 L19,22 L41,22 L41,7 L28.4692236,7 L26.9692236,1 L19,1 Z"></path>
                    </g>
                    <g id="Group-7" transform="translate(24.000000, 10.000000)">
                        <rect id="Rectangle-11" fill="#333333" transform="translate(6.483206, 2.557088) rotate(-18.000000) translate(-6.483206, -2.557088) " x="2.9832063" y="2.05708774" width="7" height="1" rx="0.5"></rect>
                        <rect id="Rectangle-11" fill="#333333" transform="translate(6.400777, 5.880351) rotate(24.000000) translate(-6.400777, -5.880351) " x="2.90077742" y="5.38035098" width="7" height="1" rx="0.5"></rect>
                        <circle id="Oval-3" stroke="#333333" fill="#FFFFFF" cx="2" cy="4" r="2"></circle>
                        <circle id="Oval-3" stroke="#333333" fill="#FFFFFF" cx="10.5" cy="1.5" r="1.5"></circle>
                        <circle id="Oval-3" stroke="#333333" fill="#FFFFFF" cx="10.5" cy="7.5" r="1.5"></circle>
                    </g>
                    <text id="NAS文件系统" font-family="PingFangSC-Regular, PingFang SC" font-size="10" font-weight="normal" fill="#333333">
                        <tspan x="0" y="36">NAS文件系统</tspan>
                    </text>
                </g>
            </g>
        </g>
    </g>
</svg>