<?xml version="1.0" encoding="UTF-8" standalone="no"?>
<svg width="159px" height="90px" viewBox="0 0 159 90" version="1.1" xmlns="http://www.w3.org/2000/svg" xmlns:xlink="http://www.w3.org/1999/xlink">
    <!-- Generator: Sketch 49.2 (51160) - http://www.bohemiancoding.com/sketch -->
    <title>Group 6</title>
    <desc>Created with Sketch.</desc>
    <defs>
        <path d="M1,0 L49,0 C49.5522847,-1.01453063e-16 50,0.44771525 50,1 L50,89 C50,89.5522847 49.5522847,90 49,90 L1,90 C0.44771525,90 6.76353751e-17,89.5522847 0,89 L0,1 C-6.76353751e-17,0.44771525 0.44771525,1.01453063e-16 1,0 Z" id="path-1"></path>
        <mask id="mask-2" maskContentUnits="userSpaceOnUse" maskUnits="objectBoundingBox" x="0" y="0" width="50" height="90" fill="white">
            <use xlink:href="#path-1"></use>
        </mask>
        <path d="M110,0 L158,0 C158.552285,-1.01453063e-16 159,0.44771525 159,1 L159,89 C159,89.5522847 158.552285,90 158,90 L110,90 C109.447715,90 109,89.5522847 109,89 L109,1 C109,0.44771525 109.447715,1.01453063e-16 110,0 Z" id="path-3"></path>
        <mask id="mask-4" maskContentUnits="userSpaceOnUse" maskUnits="objectBoundingBox" x="0" y="0" width="50" height="90" fill="white">
            <use xlink:href="#path-3"></use>
        </mask>
        <polygon id="path-5" points="12.375 13 17.625 13 18.375 14.875 21 14.875 21 23.125 9 23.125 9 14.875 11.625 14.875"></polygon>
        <polygon id="path-6" points="12.375 13 17.625 13 18.375 14.875 21 14.875 21 23.125 9 23.125 9 14.875 11.625 14.875"></polygon>
        <polygon id="path-7" points="3.75 0 18.75 0 18.75 18.75 15 24 0 24 0 3.75"></polygon>
        <polygon id="path-8" points="0 4 15 4 15 24 0 24"></polygon>
    </defs>
    <g id="Page-1" stroke="none" stroke-width="1" fill="none" fill-rule="evenodd">
        <g id="resourceï¼protect" transform="translate(-580.000000, -249.000000)">
            <g id="Group-2" transform="translate(508.000000, 47.000000)">
                <g id="formular-">
                    <g id="Group-6" transform="translate(72.000000, 202.000000)">
                        <g id="Group-4">
                            <use id="Rectangle-11" stroke="#999999" mask="url(#mask-2)" stroke-width="2" stroke-dasharray="2,2" xlink:href="#path-1"></use>
                            <use id="Rectangle-11" stroke="#999999" mask="url(#mask-4)" stroke-width="2" stroke-dasharray="2,2" xlink:href="#path-3"></use>
                            <path d="M37.5,72.5 L119.521503,72.5" id="Line-2" stroke="#999999" stroke-linecap="square"></path>
                            <path d="M37.5,66.5 L88.5215029,66.5" id="Line-2" stroke="#999999" stroke-linecap="square"></path>
                            <path d="M23.5,32.5 L23.5,56.5798724" id="Line-3" stroke="#979797" stroke-linecap="square"></path>
                            <path d="M88.5,31.5 L88.5,66.5798724" id="Line-3" stroke="#979797" stroke-linecap="square"></path>
                        </g>
                        <g id="lun" transform="translate(14.000000, 60.000000)">
                            <ellipse id="Combined-Shape" stroke="#333333" stroke-width="2" fill="#FFFFFF" cx="9.42857143" cy="18.0714286" rx="9.42857143" ry="3.92857143"></ellipse>
                            <ellipse id="Combined-Shape" stroke="#333333" stroke-width="2" fill="#FFFFFF" cx="9.42857143" cy="13.3571429" rx="9.42857143" ry="3.92857143"></ellipse>
                            <ellipse id="Combined-Shape" stroke="#333333" stroke-width="2" fill="#FFFFFF" cx="9.42857143" cy="8.64285714" rx="9.42857143" ry="3.92857143"></ellipse>
                            <ellipse id="Combined-Shape" stroke="#333333" stroke-width="2" fill="#3399FF" cx="9.42857143" cy="3.92857143" rx="9.42857143" ry="3.92857143"></ellipse>
                            <polygon id="Rectangle-18" fill="#FFFFFF" points="11.5 11 18.5 11 19.5 13.5 21 13.5 21 23 7 23 7 13.5 10.5 13.5"></polygon>
                            <g id="Rectangle-18">
                                <use fill="#FFFFFF" fill-rule="evenodd" xlink:href="#path-5"></use>
                                <path stroke="#333333" stroke-width="2" d="M13.052033,14 L12.302033,15.875 L10,15.875 L10,22.125 L20,22.125 L20,15.875 L17.697967,15.875 L16.947967,14 L13.052033,14 Z"></path>
                            </g>
                        </g>
                        <g id="lun" transform="translate(124.000000, 60.000000)">
                            <ellipse id="Combined-Shape" stroke="#333333" stroke-width="2" fill="#FFFFFF" cx="9.42857143" cy="18.0714286" rx="9.42857143" ry="3.92857143"></ellipse>
                            <ellipse id="Combined-Shape" stroke="#333333" stroke-width="2" fill="#FFFFFF" cx="9.42857143" cy="13.3571429" rx="9.42857143" ry="3.92857143"></ellipse>
                            <ellipse id="Combined-Shape" stroke="#333333" stroke-width="2" fill="#FFFFFF" cx="9.42857143" cy="8.64285714" rx="9.42857143" ry="3.92857143"></ellipse>
                            <ellipse id="Combined-Shape" stroke="#333333" stroke-width="2" fill="#3399FF" cx="9.42857143" cy="3.92857143" rx="9.42857143" ry="3.92857143"></ellipse>
                            <polygon id="Rectangle-18" fill="#FFFFFF" points="11.5 11 18.5 11 19.5 13.5 21 13.5 21 23 7 23 7 13.5 10.5 13.5"></polygon>
                            <g id="Rectangle-18">
                                <use fill="#FFFFFF" fill-rule="evenodd" xlink:href="#path-6"></use>
                                <path stroke="#333333" stroke-width="2" d="M13.052033,14 L12.302033,15.875 L10,15.875 L10,22.125 L20,22.125 L20,15.875 L17.697967,15.875 L16.947967,14 L13.052033,14 Z"></path>
                            </g>
                        </g>
                        <g id="cloud" transform="translate(82.000000, 11.000000)"></g>
                        <g id="Group-7" transform="translate(77.000000, 11.000000)" stroke="#333333" stroke-width="2">
                            <path d="M8.5,13.5 C6.01471863,13.5 4,11.4852814 4,9 C4,6.51471863 6.01471863,4.5 8.5,4.5 C8.51030345,4.5 8.52059881,4.50003463 8.53088597,4.50010377 C8.8106512,1.96883168 10.956653,0 13.5625,0 C16.2152338,0 18.3914255,2.04031901 18.6073946,4.63727652 C20.5572019,5.13067491 22,6.89684568 22,9 C22,11.4852814 19.9852814,13.5 17.5,13.5 L8.5,13.5 Z" id="Combined-Shape" fill="#FFFFFF"></path>
                            <path d="M4.5,15.5 C2.01471863,15.5 0,13.4852814 0,11 C0,8.51471863 2.01471863,6.5 4.5,6.5 C4.51030345,6.5 4.52059881,6.50003463 4.53088597,6.50010377 C4.8106512,3.96883168 6.95665296,2 9.5625,2 C12.2152338,2 14.3914255,4.04031901 14.6073946,6.63727652 C16.5572019,7.13067491 18,8.89684568 18,11 C18,13.4852814 15.9852814,15.5 13.5,15.5 L4.5,15.5 Z" id="Combined-Shape" fill="#3399FF"></path>
                        </g>
                        <g id="snapshot" transform="translate(60.000000, 48.000000)">
                            <path d="M8,16 C3.581722,16 0,12.418278 0,8 C0,3.581722 3.581722,0 8,0 C12.418278,0 16,3.581722 16,8 C16,12.418278 12.418278,16 8,16 Z M8,14 C11.3137085,14 14,11.3137085 14,8 C14,4.6862915 11.3137085,2 8,2 C4.6862915,2 2,4.6862915 2,8 C2,11.3137085 4.6862915,14 8,14 Z" id="Combined-Shape" fill="#999999"></path>
                            <rect id="Rectangle-24" fill="#3DCCA6" opacity="0.98999995" x="7" y="3" width="2" height="7" rx="1"></rect>
                            <rect id="Rectangle-24" fill="#3DCCA6" opacity="0.98999995" transform="translate(9.000000, 8.000000) rotate(90.000000) translate(-9.000000, -8.000000) " x="8" y="5" width="2" height="6" rx="1"></rect>
                        </g>
                        <g id="host" transform="translate(15.000000, 6.000000)">
                            <g id="Rectangle-18">
                                <use fill="#FFFFFF" fill-rule="evenodd" xlink:href="#path-7"></use>
                                <path stroke="#333333" stroke-width="2" d="M4.16421356,1 L1,4.16421356 L1,23 L14.4853821,23 L17.75,18.4295349 L17.75,1 L4.16421356,1 Z"></path>
                            </g>
                            <g id="Rectangle-18">
                                <use fill="#3399FF" fill-rule="evenodd" xlink:href="#path-8"></use>
                                <path stroke="#333333" stroke-width="2" d="M1,5 L1,23 L14,23 L14,5 L1,5 Z"></path>
                            </g>
                            <rect id="Rectangle-19" fill="#FFFFFF" x="4" y="8" width="7" height="2" rx="1"></rect>
                            <path d="M4.5,16 L10.5,16 C10.7761424,16 11,16.2238576 11,16.5 L11,16.5 C11,16.7761424 10.7761424,17 10.5,17 L4.5,17 C4.22385763,17 4,16.7761424 4,16.5 L4,16.5 C4,16.2238576 4.22385763,16 4.5,16 Z" id="Rectangle-19" fill="#FFFFFF"></path>
                            <path d="M4,13 L11,13 L11,20 L4,20 L4,13 Z M5,14 L5,19 L10,19 L10,14 L5,14 Z" id="Combined-Shape" fill="#FFFFFF"></path>
                        </g>
                    </g>
                </g>
            </g>
        </g>
    </g>
</svg>