<?xml version="1.0" encoding="UTF-8" standalone="no"?>
<svg width="30px" height="32px" viewBox="0 0 30 32" version="1.1" xmlns="http://www.w3.org/2000/svg" xmlns:xlink="http://www.w3.org/1999/xlink">
    <!-- Generator: Sketch 49.2 (51160) - http://www.bohemiancoding.com/sketch -->
    <title>protect</title>
    <desc>Created with Sketch.</desc>
    <defs></defs>
    <g id="Page-1" stroke="none" stroke-width="1" fill="none" fill-rule="evenodd">
        <g id="resourceï¼protect" transform="translate(-31.000000, -71.000000)" fill="#DFE0E5">
            <g id="protect" transform="translate(31.000000, 71.000000)">
                <path d="M28.1626262,4.71194465 C31.5828128,15.9095177 25.6973183,27.946325 14.5646376,31.998611 C3.43460059,27.946325 -2.4499726,15.9095177 0.969292695,4.71194465 C6.09911192,4.70128951 10.8092941,2.93473584 14.5601912,0 C18.3093259,2.94094467 23.0275194,4.70124941 28.1626262,4.71194465 Z M26.6433676,6.12313054 C22.1499542,6.1137718 18.0213556,4.57343829 14.7407204,2 C11.4585429,4.56800533 7.33695459,6.11380689 2.84816792,6.12313054 C-0.143819078,15.9214323 5.00540597,26.4540958 14.7446111,30 C24.4861296,26.4540958 29.6361608,15.9214323 26.6433676,6.12313054 Z" id="Combined-Shape" fill-rule="nonzero"></path>
                <path d="M13.6288037,17.355931 L22.1164157,10.2339788 C22.5394904,9.87897705 23.170246,9.93416101 23.5252478,10.3572357 C23.8802496,10.7803103 23.8250656,11.4110659 23.4019909,11.7660677 L14.2094576,19.479519 C14.2092377,19.4797036 14.2090178,19.479888 14.2087977,19.4800723 C13.8100643,19.8231298 13.2079737,19.7992619 12.8379281,19.4160684 L7.28066116,13.66135 C6.89701193,13.2640696 6.90806218,12.6310011 7.30534259,12.2473519 C7.70262299,11.8637026 8.33569153,11.8747529 8.71934076,12.2720333 L13.6288037,17.355931 Z" id="Combined-Shape"></path>
            </g>
        </g>
    </g>
</svg>