<?xml version="1.0" encoding="UTF-8" standalone="no"?>
<svg width="32px" height="32px" viewBox="0 0 32 32" version="1.1" xmlns="http://www.w3.org/2000/svg" xmlns:xlink="http://www.w3.org/1999/xlink">
    <!-- Generator: Sketch 49.2 (51160) - http://www.bohemiancoding.com/sketch -->
    <title>Group 9</title>
    <desc>Created with Sketch.</desc>
    <defs></defs>
    <g id="Page-1" stroke="none" stroke-width="1" fill="none" fill-rule="evenodd">
        <g id="icon" transform="translate(-494.000000, -54.000000)" stroke="#FFFFFF" stroke-width="2">
            <g id="Group-9" transform="translate(494.000000, 54.000000)">
                <g id="Group-8">
                    <path d="M8.35573915,3.09105814 C8.99440946,4.56001099 8.70446092,6.32497633 7.51471863,7.51471863 C6.32497633,8.70446092 4.56001099,8.99440946 3.09105814,8.35573915 C2.36649419,9.57643704 1.81827552,10.8951195 1.46545075,12.2768201 C2.95639183,12.8635897 4,14.3169416 4,16 C4,17.6830584 2.95639183,19.1364103 1.46545075,19.7231799 C1.81827552,21.1048805 2.36649419,22.423563 3.09105814,23.6442609 C4.56001099,23.0055905 6.32497633,23.2955391 7.51471863,24.4852814 C8.70446092,25.6750237 8.99440946,27.439989 8.35573915,28.9089419 C9.57643704,29.6335058 10.8951195,30.1817245 12.2768201,30.5345493 C12.8635897,29.0436082 14.3169416,28 16,28 C17.6830584,28 19.1364103,29.0436082 19.7231799,30.5345493 C21.1048805,30.1817245 22.423563,29.6335058 23.6442609,28.9089419 C23.0055905,27.439989 23.2955391,25.6750237 24.4852814,24.4852814 C25.6750237,23.2955391 27.439989,23.0055905 28.9089419,23.6442609 C29.6335058,22.423563 30.1817245,21.1048805 30.5345493,19.7231799 C29.0436082,19.1364103 28,17.6830584 28,16 C28,14.3169416 29.0436082,12.8635897 30.5345493,12.2768201 C30.1817245,10.8951195 29.6335058,9.57643704 28.9089419,8.35573915 C27.439989,8.99440946 25.6750237,8.70446092 24.4852814,7.51471863 C23.2955391,6.32497633 23.0055905,4.56001099 23.6442609,3.09105814 C22.423563,2.36649419 21.1048805,1.81827552 19.7231799,1.46545075 C19.1364103,2.95639183 17.6830584,4 16,4 C14.3169416,4 12.8635897,2.95639183 12.2768201,1.46545075 C10.8951195,1.81827552 9.57643704,2.36649419 8.35573915,3.09105814 Z" id="Combined-Shape" transform="translate(16.000000, 16.000000) rotate(22.000000) translate(-16.000000, -16.000000) "></path>
                </g>
                <circle id="Oval-13" cx="16" cy="16" r="6"></circle>
            </g>
        </g>
    </g>
</svg>