<svg viewBox="0 0 16 16" version="1.1" xmlns="http://www.w3.org/2000/svg" xmlns:xlink="http://www.w3.org/1999/xlink">
    <!-- Generator: Sketch 50.2 (55047) - http://www.bohemiancoding.com/sketch -->
    <title>Group</title>
    <desc>Created with Sketch.</desc>
    <defs></defs>
    <g id="Page-1" stroke="none" stroke-width="1" fill="none" fill-rule="evenodd">
        <g id="icon" transform="translate(-361.000000, -49.000000)" fill="#666666">
            <g id="Group" transform="translate(361.000000, 49.000000)">
                <path d="M13,7 L16,7 L16,16 L7,16 L7,15 L0,15 L0,6 L4,6 L4,0 L13,0 L13,7 Z M9,7 L11,7 L11,2 L6,2 L6,6 L9,6 L9,7 Z M7,8 L2,8 L2,13 L7,13 L7,8 Z M9,9 L9,14 L14,14 L14,9 L9,9 Z" id="Combined-Shape"></path>
            </g>
        </g>
    </g>
</svg>